<svg aria-hidden="true" style="position:absolute;width:0;height:0;overflow:hidden" xmlns="http://www.w3.org/2000/svg"><defs><symbol id="icon-arrow-bth" viewBox="0 0 32 32"><path stroke-linejoin="round" stroke-linecap="round" stroke-width="5.818" d="m11.496 3.765 11.777 12.321-11.777 12.321"/></symbol><symbol id="icon-arrow" viewBox="0 0 32 32"><path d="M31.771 16.552a.78.78 0 0 0 0-1.104l-4.967-4.967a.78.78 0 1 0-1.104 1.104L30.115 16 25.7 20.415a.78.78 0 1 0 1.104 1.104l4.967-4.967zM0 16.78h31.22v-1.561H0v1.561z"/></symbol><symbol id="icon-ice-cream" viewBox="0 0 32 32"><path d="M16.533 3.289c-.267.889-1.778 2.311-3.289 3.2-1.689.978-2.578 2.044-2.311 2.756s-.089 1.778-.8 2.4c-1.067.889-1.244 2.133-.711 5.6.267 2.489.889 5.067 1.333 5.867.444.711 1.067 2.756 1.511 4.444.622 2.844 1.067 3.111 3.733 3.111 2.311 0 3.111-.444 3.2-1.6.089-1.067.089-1.156-.267-.178-.533 1.778-5.6 1.778-5.6 0 0-.711.444-1.333.889-1.333.533 0 .889.356.889.711 0 .444.533.8 1.244.8s1.244-.267 1.156-.533c0-.267.267-1.511.622-2.756.711-2.133.8-2.133 1.511-.444.622 1.689.711 1.689.711-.178.089-1.067.444-2.133.889-2.4 1.244-.8 1.689-6.844.8-9.867-.444-1.511-.978-4-1.156-5.6-.444-4.622-3.289-7.2-4.356-4zm3.023 1.955c1.156 2.311 1.156 2.4-.889 4.356-1.778 1.689-1.778 1.689.089 1.6 2.933-.089 3.022 1.867.178 3.378-1.333.711-2.133 1.333-1.778 1.422.444 0 1.511-.444 2.4-.889 2.044-1.067 3.556.622 1.689 1.867-1.422.889-6.578 1.067-9.511.267-1.511-.444-1.956-1.067-1.689-2.844.178-1.156.978-2.667 1.867-3.289 1.156-.889 1.244-1.244.356-1.689-.889-.356-.711-.8.533-1.6.978-.622 2.311-1.867 3.111-2.667 1.867-1.956 2.489-1.956 3.644.089zm1.777 14.045c.978.889-1.778 3.378-4.089 3.644-1.333.178-3.022.978-3.644 1.778-.978 1.333-1.067 1.333-1.156-.533 0-1.067-.356-1.956-.889-1.956-.444 0-.889-.889-.889-2.044 0-2.044.267-2.044 5.156-1.689 2.756.178 5.244.533 5.511.8zM17.244 24.8c.267.444-.089 1.244-.711 1.778-1.422 1.156-2.844-.178-1.867-1.689.711-1.067 1.956-1.156 2.578-.089z"/></symbol><symbol id="icon-weight" viewBox="0 0 32 32"><path d="M12 3.467c-3.289 1.422-5.156 4.267-4.711 7.289.267 1.6-.178 4-.889 5.422-1.6 3.378-.889 8.267 1.689 11.022 1.778 1.867 2.844 2.133 8.533 2.133 6.4 0 6.578-.089 8.356-2.933 1.333-2.222 1.689-3.733 1.244-6.844-.444-3.556-.8-7.2-1.244-11.822C24.711 4.267 16.711 1.601 12 3.467zm7.911.977c3.289 1.244 5.244 4.622 4.178 7.289-.533 1.511-.444 2.578.444 3.822 1.867 2.489 1.511 7.822-.622 10.578-1.778 2.222-2.222 2.4-8.267 2.133l-6.311-.267-1.689-3.378C6.133 21.51 6.133 20.799 7.2 17.51c.622-2.044 1.067-5.244.889-7.022-.178-2.933.089-3.556 2.756-5.156 3.2-1.956 5.689-2.222 9.067-.889z"/><path d="M12.8 5.689C10.044 6.933 8.622 9.6 9.689 11.467c.444.711 1.422.622 3.378-.089 2.044-.8 3.644-.8 5.956-.089 3.378 1.067 4.089.8 4.089-1.511 0-3.733-5.956-6.044-10.311-4.089zm8.711 2.578c1.156 1.867.889 1.956-5.067 1.956-5.689 0-7.111-.889-4.622-2.933s8.089-1.511 9.689.978zM18.844 15.2c1.333.533 2.756 1.956 3.289 3.289.711 2.044.889 2.133.889.533.089-2.222-2.578-4.8-4.889-4.711-1.244 0-1.067.267.711.889z"/></symbol><symbol id="icon-cow" viewBox="0 0 32 32"><path d="M6.578 4.889c-.267 1.244-.267 3.2 0 4.356.444 1.689.089 2.222-1.689 2.667-3.022.8-2.844 3.111.356 3.733 2.044.444 2.667 1.156 3.111 3.378.356 1.511.8 3.822 1.156 5.244.889 4.622 6.667 6.578 10.844 3.644 1.156-.889 1.867-2.044 1.6-2.933-.178-.889.178-2.311.8-3.2C23.467 20.889 24 19.2 24 18.134c0-1.422.711-2.044 2.756-2.489 3.2-.622 3.378-3.467.178-3.911-1.6-.267-1.867-.711-1.422-3.2.267-1.689.089-3.733-.444-4.622-.8-1.422-1.067-1.244-2.311 1.689-1.333 3.289-1.333 3.289-6.756 3.289-5.333 0-5.422 0-6.756-3.111-1.511-3.733-1.956-3.822-2.667-.889zm2.755 4.889c-.889 1.511-2.222.089-2.222-2.489V4.978l1.422 1.956c.711 1.067 1.067 2.4.8 2.844zm15.2-.267c-.444.978-.889 1.156-1.511.533s-.622-1.511.267-2.844c.889-1.6 1.244-1.689 1.422-.533.178.8.089 2.044-.178 2.844zm-1.689 1.511c.356.711 1.689 1.422 2.933 1.6 2.933.356 2.844 1.956-.089 2.311-1.867.178-2.4.889-3.111 4-.533 2.667-1.156 3.644-2.133 3.289-1.689-.444-7.2-.444-8.889 0-.978.356-1.6-.622-2.133-3.289-.711-2.933-1.333-3.822-2.933-4-2.844-.356-3.022-1.956-.267-2.311 1.244-.178 2.578-.889 2.933-1.6.533-.889 2.489-1.244 6.844-1.244s6.311.356 6.844 1.244zM20.8 24c1.244 1.244-.089 3.467-2.667 4.089-5.156 1.333-10.044-3.022-5.511-4.978 2.222-.889 6.844-.444 8.178.889z"/><path d="M11.111 13.333c-.356.533.267.889 1.244.889 2.222 0 2.4-.533.533-1.156-.711-.356-1.511-.178-1.778.267zm7.556 0c-1.067.711-.889.889.711.889 1.156 0 1.778-.356 1.511-.889-.622-1.067-.533-1.067-2.222 0zm-6.223 11.556c0 .444.444.889.978.889.444 0 .622-.444.356-.889-.267-.533-.711-.889-.978-.889-.178 0-.356.356-.356.889z"/></symbol><symbol id="icon-facebook" viewBox="0 0 32 32"><path fill="#84a178" style="fill:var(--color1, #84a178)" d="M22.143 15.972h-4.034v14.865h-6.112V15.972H9.09v-5.224h2.907V7.367c0-2.418 1.142-6.203 6.166-6.203l4.527.019v5.071h-3.285c-.539 0-1.296.271-1.296 1.424v3.075h4.567l-.534 5.219z"/></symbol><symbol id="icon-telegram" viewBox="0 0 32 32"><path fill="#84a178" style="fill:var(--color1, #84a178)" d="m12.615 19.671-.491 6.444c.702 0 1.006-.282 1.371-.62l3.293-2.937 6.822 4.663c1.251.651 2.133.308 2.47-1.074l4.478-19.585.001-.001c.397-1.726-.669-2.401-1.888-1.978L2.348 13.989c-1.796.651-1.769 1.585-.305 2.009l6.73 1.954 15.632-9.129c.736-.455 1.404-.203.854.252L12.614 19.672z"/></symbol><symbol id="icon-github" viewBox="0 0 32 32"><path fill="#84a178" style="fill:var(--color1, #84a178)" d="M16 0C7.212 0 0 7.212 0 16c0 7.499 5.262 14.312 12.25 16v-5.293c-.692.152-1.33.156-2.034-.052-.946-.279-1.714-.909-2.284-1.869-.364-.613-1.008-1.278-1.68-1.23l-.165-1.868c1.453-.124 2.711.886 3.457 2.14.332.558.713.884 1.203 1.029.473.14.982.072 1.574-.137.149-1.186.692-1.63 1.102-2.255v-.001c-4.167-.622-5.828-2.832-6.488-4.578-.874-2.317-.405-5.212 1.14-7.041.03-.036.084-.129.063-.194-.708-2.139.155-3.909.187-4.097.817.242.95-.243 3.551 1.337l.449.27c.188.112.129.048.317.034A13.544 13.544 0 0 1 16 7.723c1.136.015 2.273.178 3.404.484l.145.015c-.013-.002.04-.009.127-.062 3.248-1.968 3.132-1.324 4.003-1.608.032.188.883 1.987.182 4.099-.095.291 2.816 2.956 1.203 7.235-.659 1.746-2.32 3.957-6.487 4.578v.001c.534.814 1.176 1.247 1.173 2.927V32C26.738 30.312 32 23.499 32 16c0-8.788-7.212-16-16-16z"/></symbol><symbol id="icon-smile-red" viewBox="0 0 32 32"><path fill="#fff" style="fill:var(--color2, #fff)" d="M11.812 15.692c1.095.78 3.001-.06 4.257-1.877s1.386-3.922.291-4.702c-1.095-.78-3.001.06-4.257 1.877s-1.386 3.922-.291 4.702z"/><path style="fill:var(--color3, #000)" d="M16.257 9.26c.996.71.844 2.748-.334 4.452s-3.014 2.543-4.01 1.833c-.996-.71-.844-2.748.334-4.452s3.015-2.542 4.01-1.833zm.204-.295c-1.175-.837-3.192.022-4.504 1.921s-1.423 4.116-.247 4.953c1.175.837 3.192-.022 4.504-1.921s1.424-4.115.247-4.953z"/><path fill="#fff" style="fill:var(--color2, #fff)" d="M18.486 20.447c1.095.78 3.001-.06 4.257-1.877s1.386-3.922.291-4.702c-1.095-.78-3.001.06-4.257 1.877s-1.386 3.922-.291 4.702z"/><path style="fill:var(--color3, #000)" d="M22.931 14.015c.996.71.844 2.748-.334 4.452s-3.014 2.543-4.01 1.833c-.996-.71-.844-2.748.334-4.452s3.015-2.542 4.01-1.833zm.204-.294c-1.175-.837-3.192.023-4.504 1.921s-1.423 4.116-.247 4.953 3.192-.022 4.504-1.921c1.312-1.898 1.424-4.115.247-4.953zM14.032 13.316c.614.438 1.675-.021 2.368-1.024s.758-2.171.143-2.609c-.614-.438-1.675.021-2.368 1.024s-.758 2.171-.143 2.609z"/><path style="fill:var(--color3, #000)" d="M16.509 9.732c.587.418.516 1.551-.158 2.526s-1.699 1.428-2.286 1.009c-.587-.418-.516-1.551.158-2.526s1.7-1.427 2.286-1.009zm.068-.098c-.641-.457-1.738.009-2.45 1.039s-.77 2.236-.129 2.693 1.738-.009 2.45-1.039c.712-1.03.77-2.236.129-2.693zM20.802 18.141c.614.438 1.675-.021 2.368-1.024s.758-2.171.143-2.609c-.614-.438-1.675.021-2.368 1.024s-.758 2.171-.143 2.609z"/><path style="fill:var(--color3, #000)" d="M23.28 14.556c.587.418.516 1.551-.158 2.526s-1.699 1.428-2.286 1.009-.516-1.551.158-2.526c.674-.975 1.7-1.427 2.286-1.009zm.068-.098c-.641-.457-1.738.009-2.45 1.039s-.77 2.236-.129 2.693c.641.457 1.738-.009 2.45-1.039s.77-2.236.129-2.693z"/><path fill="#fff" style="fill:var(--color2, #fff)" d="M13.702 12.861c.287.205.733.063.996-.317s.242-.853-.045-1.058c-.287-.205-.733-.063-.996.317s-.242.853.045 1.058zM20.501 17.853c.287.205.733.063.996-.317s.242-.853-.045-1.058c-.287-.205-.733-.063-.996.317s-.242.853.045 1.058z"/><path style="fill:var(--color3, #000)" d="M15.386 6.322c1.353.05 2.557.705 3.356 1.814.27.374.816-.086.548-.458a4.96 4.96 0 0 0-3.844-2.072c-.455-.016-.518.701-.059.717zM23.254 11.196c1.276.466 2.219 1.47 2.648 2.769.145.439.788.135.645-.3a5.022 5.022 0 0 0-3.055-3.148c-.429-.156-.669.521-.238.679z"/><path fill="none" stroke="#000" style="stroke:var(--color3, #000)" stroke-miterlimit="10" stroke-width=".621" d="M11.914 22.434c-4.995-3.559-7.341-8.906-5.242-11.943M24.759 23.379c-2.1 3.037-7.85 2.614-12.845-.945M5.439 9.978l2.603.829M24.086 22.681l1.412 1.299"/><path fill="none" stroke="#000" style="stroke:var(--color3, #000)" stroke-miterlimit="10" stroke-width=".414" d="M14.343 6.949c-.098.159-.32.563-.321 1.127-.001.492.166.856.256 1.021M14.73 7.292a2.421 2.421 0 0 0-.146.848c-.001.37.076.645.116.768M15.331 7.775a1.185 1.185 0 0 0-.032 1.115M25.816 14.977a2.113 2.113 0 0 1-.935.69 2.063 2.063 0 0 1-1.032.103M25.368 14.725a2.37 2.37 0 0 1-.736.428 2.415 2.415 0 0 1-.751.151M24.715 14.316a1.145 1.145 0 0 1-1.022.409"/><path style="fill:var(--color3, #000);stroke:var(--color3, #000)" stroke="#000" stroke-miterlimit="10" stroke-width=".621" d="M12.069 22.827c.433-.352.321-1.224-.25-1.948s-1.385-1.026-1.818-.674c-.433.352-.321 1.224.25 1.948s1.385 1.026 1.818.674z"/><path style="fill:var(--color3, #000);stroke:var(--color3, #000)" stroke="#000" stroke-miterlimit="10" stroke-width=".621" d="M11.599 23.308c.881.628 1.672 1.027 1.766.892s-.545-.755-1.426-1.383c-.881-.628-1.672-1.027-1.766-.892s.545.755 1.426 1.383z"/><path style="fill:var(--color3, #000);stroke:var(--color3, #000)" stroke="#000" stroke-miterlimit="10" stroke-width=".621" d="M13.038 24.165c.832.384 1.692.279 1.922-.234s-.259-1.239-1.091-1.623c-.832-.384-1.692-.279-1.922.234s.259 1.239 1.091 1.623z"/></symbol><symbol id="icon-smile-yellow" viewBox="0 0 32 32"><path fill="#fff" style="fill:var(--color2, #fff)" d="M12.176 20.591c1.343-.458 1.834-2.636 1.097-4.863s-2.424-3.663-3.767-3.204c-1.343.458-1.834 2.635-1.097 4.863s2.424 3.663 3.767 3.204z"/><path style="fill:var(--color3, #000)" d="M9.566 12.703c1.222-.417 2.838.995 3.529 3.084s.243 4.205-.979 4.622c-1.222.417-2.838-.995-3.529-3.084s-.242-4.206.979-4.622zm-.12-.361c-1.441.492-1.985 2.777-1.215 5.105s2.563 3.816 4.005 3.324c1.441-.492 1.985-2.777 1.215-5.105s-2.562-3.816-4.005-3.324z"/><path fill="#fff" style="fill:var(--color2, #fff)" d="M20.36 17.799c1.343-.458 1.834-2.636 1.097-4.863s-2.424-3.663-3.767-3.204-1.834 2.636-1.097 4.863c.737 2.228 2.424 3.663 3.767 3.205z"/><path style="fill:var(--color3, #000)" d="M17.75 9.911c1.222-.417 2.838.995 3.529 3.084s.243 4.205-.979 4.622c-1.222.417-2.838-.995-3.529-3.084s-.242-4.206.979-4.622zm-.12-.361c-1.441.492-1.985 2.777-1.215 5.105s2.563 3.816 4.005 3.324c1.441-.492 1.985-2.777 1.215-5.105S19.073 9.058 17.63 9.55zM11.497 18.544c.753-.257 1.034-1.463.627-2.693s-1.348-2.019-2.101-1.762c-.753.257-1.034 1.463-.627 2.693s1.348 2.019 2.101 1.762z"/><path style="fill:var(--color3, #000)" d="M10.043 14.148c.72-.246 1.627.527 2.022 1.722s.133 2.367-.588 2.613c-.72.246-1.627-.526-2.022-1.722s-.131-2.367.588-2.613zm-.04-.12c-.787.268-1.084 1.51-.666 2.773s1.394 2.07 2.181 1.802c.787-.268 1.084-1.51.666-2.773s-1.394-2.07-2.181-1.802zM19.684 15.752c.753-.257 1.034-1.463.627-2.693s-1.348-2.019-2.101-1.762c-.753.257-1.034 1.463-.627 2.693s1.348 2.019 2.101 1.762z"/><path style="fill:var(--color3, #000)" d="M18.229 11.356c.72-.246 1.627.527 2.022 1.722s.133 2.367-.587 2.613-1.627-.527-2.022-1.722-.131-2.367.587-2.613zm-.04-.12c-.787.268-1.084 1.51-.666 2.774s1.394 2.07 2.181 1.802 1.084-1.51.666-2.774c-.418-1.263-1.394-2.07-2.181-1.802z"/><path fill="#fff" style="fill:var(--color2, #fff)" d="M10.218 16.635c.453-.155.66-.765.462-1.364s-.726-.958-1.18-.804c-.453.155-.66.765-.462 1.364s.726.958 1.18.804zM18.32 13.602c.453-.155.66-.765.462-1.364s-.726-.958-1.18-.804c-.453.155-.66.765-.462 1.364s.726.958 1.18.804z"/><path style="fill:var(--color3, #000)" d="M7.307 11.076c.2-.732.556-1.484 1.279-1.802.674-.296 1.43-.11 2.078.169.444.192.78-.49.334-.682-.863-.373-1.852-.579-2.743-.174-.937.427-1.422 1.375-1.684 2.334-.13.474.606.625.735.155zM15.942 7.377c1.882.214 3.82-.048 5.573-.782.444-.185.208-.91-.239-.722-1.627.68-3.43.957-5.181.758-.478-.055-.633.69-.153.746z"/><path fill="none" stroke="#000" style="stroke:var(--color3, #000)" stroke-miterlimit="10" stroke-width=".805" d="M18.657 25.415c-6.125 2.09-12.089.765-13.322-2.96"/><path fill="none" stroke="#000" style="stroke:var(--color3, #000)" stroke-miterlimit="10" stroke-width=".805" d="M27.514 14.889c1.233 3.725-2.733 8.437-8.858 10.527M4.129 23.202l2.33-1.733M26.505 15.031l1.978-.406"/></symbol><symbol id="icon-smile-green" viewBox="0 0 32 32"><path fill="#fff" style="fill:var(--color2, #fff)" d="M11.487 16.398c1.138.667 2.932-.323 4.005-2.211s1.021-3.96-.117-4.627c-1.138-.667-2.932.323-4.005 2.211s-1.021 3.96.117 4.627z"/><path style="fill:var(--color3, #000)" d="M15.288 9.712c1.036.607 1.06 2.615.054 4.386s-2.732 2.753-3.767 2.147c-1.036-.607-1.06-2.615-.054-4.386s2.733-2.753 3.767-2.147zm.175-.306c-1.222-.716-3.121.303-4.243 2.276s-1.041 4.153.181 4.869c1.222.716 3.121-.303 4.243-2.276s1.042-4.152-.181-4.869z"/><path fill="#fff" style="fill:var(--color2, #fff)" d="M18.423 20.464c1.138.667 2.932-.323 4.005-2.211s1.021-3.96-.117-4.627c-1.138-.667-2.932.323-4.005 2.211s-1.021 3.96.117 4.627z"/><path style="fill:var(--color3, #000)" d="M22.224 13.778c1.036.607 1.06 2.615.054 4.386s-2.732 2.753-3.767 2.147c-1.036-.607-1.06-2.615-.054-4.386s2.733-2.753 3.767-2.147zm.174-.306c-1.222-.716-3.121.303-4.243 2.276s-1.041 4.153.181 4.869c1.222.716 3.121-.303 4.243-2.276s1.042-4.152-.181-4.869zM12.472 14.663c.639.374 1.637-.168 2.23-1.211s.556-2.192-.083-2.566c-.639-.374-1.637.168-2.23 1.211s-.556 2.192.083 2.566z"/><path style="fill:var(--color3, #000)" d="M14.591 10.937c.61.358.638 1.472.062 2.485s-1.54 1.547-2.151 1.189c-.61-.358-.638-1.472-.062-2.485s1.541-1.546 2.151-1.189zm.058-.102c-.667-.391-1.7.161-2.309 1.232s-.563 2.256.104 2.646c.667.391 1.7-.161 2.309-1.232s.563-2.256-.104-2.646zM19.41 18.729c.639.374 1.637-.168 2.23-1.211s.556-2.192-.083-2.566c-.639-.374-1.637.168-2.23 1.211s-.556 2.192.083 2.566z"/><path style="fill:var(--color3, #000)" d="M21.528 15.004c.61.358.638 1.472.061 2.485s-1.54 1.547-2.151 1.189-.638-1.472-.061-2.485c.576-1.014 1.541-1.546 2.151-1.189zm.058-.102c-.667-.391-1.7.161-2.309 1.232s-.563 2.256.104 2.646c.667.391 1.7-.161 2.309-1.232s.563-2.256-.104-2.646z"/><path fill="#fff" style="fill:var(--color2, #fff)" d="M13.84 13.219c.384.225.93-.003 1.218-.511s.211-1.101-.174-1.326c-.384-.225-.93.003-1.218.511s-.211 1.101.174 1.326zM20.777 17.285c.384.225.93-.003 1.218-.511s.211-1.101-.174-1.326c-.384-.225-.93.003-1.218.511s-.211 1.101.174 1.326z"/><path style="fill:var(--color3, #000)" d="M14.411 6.898a4.174 4.174 0 0 1 3.164 1.854c.251.374.857.027.605-.35-.871-1.3-2.227-2.099-3.773-2.211-.446-.033-.441.674.004.707zM21.649 11.141a4.174 4.174 0 0 1 3.164 1.854c.251.374.857.027.605-.35-.871-1.3-2.227-2.099-3.773-2.211-.446-.033-.441.674.004.707z"/><path fill="none" stroke="#000" style="stroke:var(--color3, #000)" stroke-miterlimit="10" stroke-width=".636" d="M12.421 23.002c-5.191-3.043-7.945-8.069-6.149-11.225M25.072 22.796c-1.795 3.157-7.459 3.249-12.65.206M5.022 11.384l2.618.582M24.355 22.172l1.492 1.147"/></symbol><symbol id="icon-close-modal-btn" viewBox="0 0 32 32"><path d="m17.254 16 7.369-7.369a.886.886 0 0 0-.047-1.207.89.89 0 0 0-1.207-.047L16 14.746 8.631 7.368A.892.892 0 0 0 7.369 8.63l7.378 7.369-7.378 7.369a.891.891 0 0 0-.05 1.304.906.906 0 0 0 .663.26.88.88 0 0 0 .641-.31l7.378-7.369 7.369 7.369a.886.886 0 0 0 1.207-.047.893.893 0 0 0 .047-1.207l-7.369-7.369z"/></symbol><symbol id="icon-close-btn" viewBox="0 0 32 32"><path fill="#fff" style="fill:var(--color2, #fff)" d="M23.884 6.706 16 14.59 8.116 6.706a.995.995 0 0 0-1.38.031 1 1 0 0 0-.031 1.38l7.88 7.884-7.882 7.882a1.002 1.002 0 0 0-.018 1.427.998.998 0 0 0 1.427-.015l7.886-7.882 7.884 7.884a1 1 0 0 0 1.38-.03 1 1 0 0 0 .03-1.38l-7.884-7.884 7.884-7.886a1.002 1.002 0 0 0 .018-1.427.998.998 0 0 0-1.427.015v.002z"/></symbol><symbol id="icon-Burger" viewBox="0 0 32 32"><path fill="none" stroke="#fff" style="stroke:var(--color2, #fff)" stroke-linecap="round" stroke-width="2.909" d="M1.455 7.273h29.091M1.455 16h29.091M1.455 24.727h29.091"/></symbol><symbol id="icon-logo" viewBox="0 0 32 32"><path fill="#f8d24e" style="fill:var(--color4, #f8d24e)" d="M16.112 14.248c1.513-4.047-1.62-6.262-3.696-7.718-.397-.297-.794-.575-1.116-.83-.575-.478-.998-1.109-1.22-1.817s-.232-1.465-.031-2.179a.42.42 0 0 0-.328-.526.443.443 0 0 0-.231.017 7.066 7.066 0 0 0-1.926 1.131c-.554.421-1.002.961-1.311 1.579s-.47 1.298-.472 1.987a5.22 5.22 0 0 0-1.028 1.061 3.846 3.846 0 0 0-.758 2.485c-.636.576-1.11 1.304-1.375 2.114s-.313 1.674-.138 2.508a1.318 1.318 0 0 0-.113 2.202c.236.175.524.269.82.267h.028v2.301c0 .234.094.458.262.623s.395.258.632.258h.695l1.132 9.666c.024.215.127.414.29.559s.375.224.595.224h4.709c.22 0 .432-.08.596-.225s.268-.343.294-.558l1.132-9.666h.695c.237 0 .464-.093.632-.258s.262-.389.262-.623v-2.301h.028c.359 0 .703-.141.957-.391a1.325 1.325 0 0 0 0-1.895l-.012.004zM5.921 6.906C6.493 9.023 8.7 9.857 10.713 10.6a.434.434 0 0 0 .658-.394.415.415 0 0 0-.18-.316.457.457 0 0 0-.173-.073c-2.168-.81-4.212-1.565-4.367-3.73-.036-.595.077-1.189.33-1.731S7.618 3.343 8.1 2.983c.302-.248.626-.468.969-.657a5.028 5.028 0 0 0 0 .814c.046.62.218 1.225.506 1.778s.686 1.044 1.17 1.443c.33.278.738.564 1.191.869 1.044.74 2.231 1.565 2.986 2.685a4.13 4.13 0 0 1 .432 3.972h-1.755c-3.617 0-7.774-.986-8.596-3.749-.163-.568-.162-1.17.004-1.738s.489-1.079.933-1.475l-.02-.02zm3.255 13.341 1.326 1.307-1.326 1.307-1.326-1.315 1.326-1.299zm3.042 3.432-1.096 1.08-1.326-1.307 1.326-1.303 1.151 1.131-.056.399zm-3.042 2.998L7.85 25.37l1.326-1.307 1.326 1.307-1.326 1.307zm-.607-3.217-1.326 1.307-1.104-1.088-.048-.391 1.151-1.131 1.326 1.303zm-1.937 1.91-.266.262-.067-.595.333.333zm-.139 1.338.75-.74L8.7 27.416a.863.863 0 0 0 .028.086H6.584l-.091-.794zm4.621-.739.75.74-.091.783H9.569l1.544-1.522zm.873-.337-.266-.262.337-.333-.072.595zm.397-3.42-.663-.665.842-.83-.179 1.495zm-1.274-1.26-1.259-1.237h2.517l-1.259 1.237zm-3.871 0L5.98 19.715h2.517l-1.259 1.237zm4.288 8.359H6.822c-.007-.001-.014-.004-.019-.009s-.008-.011-.009-.018l-.111-.939h4.987l-.107.939c-.001.008-.005.015-.011.02s-.013.008-.021.008h-.004zm3.641-13.635h-1.382a.43.43 0 0 0-.333.109.434.434 0 0 0-.142.316.434.434 0 0 0 .142.316.436.436 0 0 0 .333.109h.492v2.301c-.001.008-.005.015-.011.02s-.013.008-.021.008H4.094c-.008 0-.015-.003-.021-.008s-.01-.012-.011-.02v-2.301h7.865a.432.432 0 0 0 .391-.425.426.426 0 0 0-.391-.425H3.192a.495.495 0 0 1-.537-.484.476.476 0 0 1 .16-.358.504.504 0 0 1 .377-.126h.901a.432.432 0 0 0 .391-.425.426.426 0 0 0-.391-.425h-.794a4.14 4.14 0 0 1 .865-3.405c.278.853.993 2.019 2.779 2.947 1.679.865 3.903 1.307 6.607 1.307h1.588a.495.495 0 0 1 .537.484.476.476 0 0 1-.16.358.489.489 0 0 1-.377.126h.028zM18.406 27.485l-.317.486.006.004.311-.49zm3.412.164.58-.013-.015-.672-.662.112.097.572zm.04 1.786.148.561.443-.117-.01-.458-.58.013zm-4.478.085.13-.566-.004-.001-.127.566zm-2.211-.987.376-.443-.001-.001-.375.443zm-.799-1.813.58.003v-.003h-.58zm.278-1.27-.521-.256v.001l.521.255zm1.78-1.519.206.543.002-.001-.208-.542zm5.702-.148.579.045.038-.49-.477-.118-.14.563zm-.142 1.82-.108.57.637.121.05-.646-.579-.045zm-1.547-.745c-.871 0-1.603.093-2.138.328-.274.12-.523.29-.705.53a1.368 1.368 0 0 0-.277.839h1.161c0-.068.016-.106.041-.138a.602.602 0 0 1 .247-.168c.312-.137.849-.23 1.671-.23v-1.161zm-3.12 1.697c0 .597.268 1.09.768 1.416l.634-.973a.472.472 0 0 1-.241-.443h-1.161zm.774 1.42c.474.3 1.1.413 1.801.413v-1.161c-.606 0-.974-.103-1.18-.233l-.621.981zm1.802.413c.689 0 1.362-.055 2.019-.167l-.194-1.145c-.59.1-1.198.151-1.824.151v1.161zm1.341-.726.04 1.786 1.16-.026-.04-1.786-1.161.026zm.472 1.211a8.608 8.608 0 0 1-2.199.264v1.161c.889 0 1.722-.099 2.494-.303l-.295-1.123zm-2.199.265c-.82 0-1.483-.064-2.001-.184l-.261 1.131c.631.145 1.389.213 2.262.213v-1.161zm-2.004-.185c-.554-.124-.954-.256-1.221-.386l-.509 1.043c.383.187.882.343 1.477.476l.253-1.133zm-1.221-.386a3.525 3.525 0 0 1-.741-.477l-.751.885c.29.246.619.457.982.634l.509-1.043zm-.742-.477c-.394-.333-.596-.769-.593-1.368l-1.161-.006c-.005.913.326 1.686 1.005 2.26l.749-.887zm-.594-1.37c0-.39.077-.725.219-1.014l-1.042-.511a3.43 3.43 0 0 0-.337 1.525h1.161zm.219-1.014c.264-.537.73-.954 1.465-1.233l-.412-1.085c-.958.364-1.679.959-2.095 1.806l1.042.512zm1.467-1.233c.772-.297 1.634-.449 2.592-.449v-1.161c-1.083 0-2.088.173-3.008.526l.416 1.084zm2.592-.449c.977 0 1.897.108 2.762.323l.279-1.127a12.6 12.6 0 0 0-3.042-.357v1.161zm2.323-.286-.142 1.819 1.157.09.142-1.819-1.157-.09zm.545 1.295a9.027 9.027 0 0 0-1.656-.175v1.161c.408 0 .887.05 1.439.154l.216-1.141zm5.664.927-.003.58.59.003-.006-.59-.58.006zm-.25-.754-.395.425.005.005.39-.43zm-1.445.057.402.419.004-.004-.406-.415zm-.352.686-.573-.094-.11.671.68.004.003-.58zm4.269 3.095.351.463.209-.158.02-.261-.579-.043zm-1.253.464-.125-.567-.003.001.128.566zm-4.353-.158-.198.546.005.002.193-.547zm-.992-.527-.36.455.007.005.353-.46zm-.663-.834-.52.257.001.002.519-.26zm.68-3.52.386.433-.386-.433zm5.305-.629.232-.532-.005-.002-.227.534zm1.332 1.224-.522.254.002.003.52-.257zm.227 1.015.579.042.001-.021v-.021h-.58zm-.068.935-.003.58.542.003.039-.541-.579-.042zm-4.597-.022.003-.58-.757-.004.193.732.561-.148zm.658.81-.286.505.002.001.283-.507zm3.525-.198v-.58h-.116l-.107.045.223.536zm.306 0 .579.043.047-.624h-.625v.58zm-1.749-1.65c-.005-.42-.101-.87-.44-1.178l-.78.86c-.007-.006.006.001.023.051a.95.95 0 0 1 .036.279l1.161-.012zm-.435-1.173c-.305-.283-.704-.376-1.098-.376v1.161c.226 0 .295.054.308.066l.79-.851zm-1.098-.376c-.432 0-.834.135-1.149.444l.813.829c.063-.062.156-.112.336-.112v-1.161zm-1.144.439c-.286.274-.458.62-.522 1.011l1.145.188a.602.602 0 0 1 .181-.361l-.804-.837zm.047 1.685 2.046.011.006-1.161-2.046-.011-.006 1.161zm3.921 2.052c-.127.096-.438.231-1.027.36l.25 1.134c.612-.135 1.137-.31 1.479-.569l-.701-.925zm-1.03.361a7.358 7.358 0 0 1-1.623.19v1.161a8.55 8.55 0 0 0 1.88-.218l-.256-1.132zm-1.624.19c-.547 0-.997-.026-1.357-.074l-.155 1.15c.427.057.932.085 1.512.085v-1.161zm-1.356-.074a5.187 5.187 0 0 1-1.052-.256l-.386 1.095c.422.149.85.253 1.283.311l.155-1.15zm-1.047-.254a3.11 3.11 0 0 1-.837-.442l-.707.921c.331.254.716.456 1.147.612l.396-1.091zm-.83-.437a1.842 1.842 0 0 1-.504-.638l-1.038.519a3 3 0 0 0 .822 1.029l.721-.91zm-.503-.635c-.122-.247-.195-.565-.195-.973h-1.161c0 .544.097 1.046.315 1.487l1.041-.515zm-.195-.973c0-.408.074-.769.213-1.09l-1.065-.462c-.209.48-.309 1-.309 1.552h1.161zm.213-1.089c.146-.337.326-.587.528-.767l-.772-.867c-.349.311-.62.708-.821 1.172l1.065.462zm.528-.767c.624-.556 1.575-.879 2.947-.879v-1.161c-1.538 0-2.809.361-3.719 1.173l.773.866zm2.947-.879a4.41 4.41 0 0 1 1.746.351l.453-1.069a5.57 5.57 0 0 0-2.199-.443v1.161zm1.74.348c.514.224.846.542 1.042.946l1.044-.508c-.332-.684-.889-1.183-1.622-1.503l-.464 1.064zm1.044.949c.108.22.167.469.167.758h1.161a2.84 2.84 0 0 0-.287-1.272l-1.041.514zm.168.716-.068.935 1.158.084.068-.935-1.158-.084zm.514.397-4.597-.023-.006 1.161 4.597.023.006-1.161zm-5.161.706c.136.515.468.905.933 1.168l.571-1.011c-.23-.13-.336-.28-.382-.453l-1.122.296zm.935 1.169c.471.263 1.059.369 1.717.369v-1.161c-.551 0-.919-.091-1.151-.221l-.567 1.013zm1.718.368c.706 0 1.481-.191 2.315-.538l-.446-1.072c-.746.311-1.365.449-1.869.449v1.161zm2.091-.493h.306v-1.161h-.306v1.161zm-.273-.623-.108 1.44 1.158.087.108-1.44-1.158-.087z"/></symbol></defs></svg>