<svg aria-hidden="true" style="position:absolute;width:0;height:0;overflow:hidden" xmlns="http://www.w3.org/2000/svg"><defs><symbol id="icon-smile-red" viewBox="0 0 32 32"><path fill="#fff" style="fill:var(--color1, #fff)" d="M11.812 15.692c1.095.78 3.001-.06 4.257-1.877s1.386-3.922.291-4.702c-1.095-.78-3.001.06-4.257 1.877s-1.386 3.922-.291 4.702z"/><path style="fill:var(--color2, #000)" d="M16.257 9.26c.996.71.844 2.748-.334 4.452s-3.014 2.543-4.01 1.833c-.996-.71-.844-2.748.334-4.452s3.015-2.542 4.01-1.833zm.204-.295c-1.175-.837-3.192.022-4.504 1.921s-1.423 4.116-.247 4.953c1.175.837 3.192-.022 4.504-1.921s1.424-4.115.247-4.953z"/><path fill="#fff" style="fill:var(--color1, #fff)" d="M18.486 20.447c1.095.78 3.001-.06 4.257-1.877s1.386-3.922.291-4.702c-1.095-.78-3.001.06-4.257 1.877s-1.386 3.922-.291 4.702z"/><path style="fill:var(--color2, #000)" d="M22.931 14.015c.996.71.844 2.748-.334 4.452s-3.014 2.543-4.01 1.833c-.996-.71-.844-2.748.334-4.452s3.015-2.542 4.01-1.833zm.204-.294c-1.175-.837-3.192.023-4.504 1.921s-1.423 4.116-.247 4.953 3.192-.022 4.504-1.921c1.312-1.898 1.424-4.115.247-4.953zm-9.103-.405c.614.438 1.675-.021 2.368-1.024s.758-2.171.143-2.609c-.614-.438-1.675.021-2.368 1.024s-.758 2.171-.143 2.609z"/><path style="fill:var(--color2, #000)" d="M16.509 9.732c.587.418.516 1.551-.158 2.526s-1.699 1.428-2.286 1.009c-.587-.418-.516-1.551.158-2.526s1.7-1.427 2.286-1.009zm.068-.098c-.641-.457-1.738.009-2.45 1.039s-.77 2.236-.129 2.693 1.738-.009 2.45-1.039c.712-1.03.77-2.236.129-2.693zm4.225 8.507c.614.438 1.675-.021 2.368-1.024s.758-2.171.143-2.609c-.614-.438-1.675.021-2.368 1.024s-.758 2.171-.143 2.609z"/><path style="fill:var(--color2, #000)" d="M23.28 14.556c.587.418.516 1.551-.158 2.526s-1.699 1.428-2.286 1.009-.516-1.551.158-2.526c.674-.975 1.7-1.427 2.286-1.009zm.068-.098c-.641-.457-1.738.009-2.45 1.039s-.77 2.236-.129 2.693c.641.457 1.738-.009 2.45-1.039s.77-2.236.129-2.693z"/><path fill="#fff" style="fill:var(--color1, #fff)" d="M13.702 12.861c.287.205.733.063.996-.317s.242-.853-.045-1.058c-.287-.205-.733-.063-.996.317s-.242.853.045 1.058zm6.799 4.992c.287.205.733.063.996-.317s.242-.853-.045-1.058c-.287-.205-.733-.063-.996.317s-.242.853.045 1.058z"/><path style="fill:var(--color2, #000)" d="M15.386 6.322c1.353.05 2.557.705 3.356 1.814.27.374.816-.086.548-.458a4.96 4.96 0 0 0-3.844-2.072c-.455-.016-.518.701-.059.717zm7.868 4.874c1.276.466 2.219 1.47 2.648 2.769.145.439.788.135.645-.3a5.022 5.022 0 0 0-3.055-3.148c-.429-.156-.669.521-.238.679z"/><path fill="none" stroke="#000" style="stroke:var(--color2, #000)" stroke-miterlimit="10" stroke-width=".621" d="M11.914 22.434c-4.995-3.559-7.341-8.906-5.242-11.943m18.087 12.888c-2.1 3.037-7.85 2.614-12.845-.945M5.439 9.978l2.603.829m16.044 11.874 1.412 1.299"/><path fill="none" stroke="#000" style="stroke:var(--color2, #000)" stroke-miterlimit="10" stroke-width=".414" d="M14.343 6.949c-.098.159-.32.563-.321 1.127-.001.492.166.856.256 1.021m.452-1.805a2.421 2.421 0 0 0-.146.848c-.001.37.076.645.116.768m.631-1.133a1.185 1.185 0 0 0-.032 1.115m10.517 6.087a2.113 2.113 0 0 1-.935.69 2.063 2.063 0 0 1-1.032.103m1.519-1.045a2.37 2.37 0 0 1-.736.428 2.415 2.415 0 0 1-.751.151m.834-.988a1.145 1.145 0 0 1-1.022.409"/><path style="fill:var(--color2, #000);stroke:var(--color2, #000)" stroke="#000" stroke-miterlimit="10" stroke-width=".621" d="M12.069 22.827c.433-.352.321-1.224-.25-1.948s-1.385-1.026-1.818-.674c-.433.352-.321 1.224.25 1.948s1.385 1.026 1.818.674z"/><path style="fill:var(--color2, #000);stroke:var(--color2, #000)" stroke="#000" stroke-miterlimit="10" stroke-width=".621" d="M11.599 23.308c.881.628 1.672 1.027 1.766.892s-.545-.755-1.426-1.383c-.881-.628-1.672-1.027-1.766-.892s.545.755 1.426 1.383z"/><path style="fill:var(--color2, #000);stroke:var(--color2, #000)" stroke="#000" stroke-miterlimit="10" stroke-width=".621" d="M13.038 24.165c.832.384 1.692.279 1.922-.234s-.259-1.239-1.091-1.623c-.832-.384-1.692-.279-1.922.234s.259 1.239 1.091 1.623z"/></symbol><symbol id="icon-smile-yellow" viewBox="0 0 33 32"><path fill="#fff" style="fill:var(--color1, #fff)" d="M12.569 20.739c1.386-.473 1.894-2.721 1.133-5.02s-2.502-3.781-3.888-3.308c-1.386.473-1.894 2.72-1.133 5.02s2.502 3.781 3.888 3.308z"/><path style="fill:var(--color2, #000)" d="M9.874 12.597c1.261-.43 2.929 1.027 3.643 3.184s.251 4.341-1.01 4.771c-1.261.43-2.929-1.027-3.643-3.184s-.25-4.341 1.01-4.771zm-.123-.373c-1.488.508-2.049 2.867-1.254 5.269s2.646 3.939 4.134 3.431c1.488-.508 2.049-2.867 1.254-5.269s-2.645-3.939-4.134-3.431z"/><path fill="#fff" style="fill:var(--color1, #fff)" d="M21.017 17.857c1.386-.473 1.894-2.721 1.133-5.02s-2.502-3.781-3.888-3.308-1.894 2.721-1.133 5.02c.761 2.3 2.502 3.781 3.888 3.308z"/><path style="fill:var(--color2, #000)" d="M18.322 9.715c1.261-.43 2.929 1.027 3.643 3.184s.251 4.341-1.01 4.771c-1.261.43-2.929-1.027-3.643-3.184s-.25-4.341 1.01-4.771zm-.123-.373c-1.488.508-2.049 2.867-1.254 5.269s2.646 3.939 4.134 3.431c1.488-.508 2.049-2.867 1.254-5.269s-2.645-3.939-4.134-3.431zm-6.331 9.284c.778-.265 1.068-1.51.647-2.78s-1.391-2.085-2.169-1.819c-.778.265-1.068 1.51-.647 2.78s1.391 2.085 2.169 1.819z"/><path style="fill:var(--color2, #000)" d="M10.366 14.089c.743-.254 1.679.543 2.088 1.778s.137 2.443-.606 2.697-1.679-.543-2.088-1.778-.136-2.444.606-2.697zm-.041-.125c-.812.277-1.119 1.559-.688 2.863s1.439 2.137 2.251 1.86c.812-.277 1.119-1.559.688-2.863s-1.439-2.137-2.251-1.86zm9.994 1.779c.778-.265 1.068-1.51.647-2.78s-1.391-2.085-2.169-1.819c-.778.265-1.068 1.51-.647 2.78s1.391 2.085 2.169 1.819z"/><path style="fill:var(--color2, #000)" d="M18.817 11.206c.743-.254 1.679.543 2.088 1.778s.137 2.443-.606 2.697-1.679-.544-2.088-1.778-.136-2.444.606-2.697zm-.041-.124c-.812.277-1.119 1.559-.688 2.863s1.439 2.137 2.251 1.86 1.119-1.559.688-2.863c-.432-1.304-1.439-2.137-2.251-1.86z"/><path fill="#fff" style="fill:var(--color1, #fff)" d="M10.548 16.656c.468-.16.682-.79.477-1.408s-.75-.989-1.218-.83c-.468.16-.682.79-.477 1.408s.75.989 1.218.83zm8.363-3.131c.468-.16.682-.79.477-1.408s-.75-.989-1.218-.83c-.468.16-.682.79-.477 1.408s.75.989 1.218.83z"/><path style="fill:var(--color2, #000)" d="M7.543 10.918c.207-.755.574-1.532 1.321-1.86.696-.305 1.476-.114 2.145.174.458.198.806-.506.345-.704-.891-.385-1.912-.598-2.831-.179-.967.441-1.468 1.419-1.739 2.409-.134.49.625.646.759.16zm8.913-3.819c1.943.221 3.943-.05 5.753-.807.459-.191.215-.939-.247-.746-1.68.702-3.54.988-5.349.782-.493-.057-.654.713-.158.77z"/><path fill="none" stroke="#000" style="stroke:var(--color2, #000)" stroke-miterlimit="10" stroke-width=".831" d="M19.259 25.719c-6.323 2.157-12.479.789-13.752-3.055"/><path fill="none" stroke="#000" style="stroke:var(--color2, #000)" stroke-miterlimit="10" stroke-width=".831" d="M28.402 14.853c1.273 3.845-2.821 8.71-9.144 10.867M4.262 23.434l2.406-1.789M27.36 15l2.042-.419"/></symbol><symbol id="icon-smile-green" viewBox="0 0 33 32"><path fill="#fff" style="fill:var(--color1, #fff)" d="M11.929 16.413c1.182.693 3.044-.335 4.159-2.296s1.06-4.112-.122-4.805c-1.182-.693-3.044.335-4.159 2.296s-1.06 4.112.122 4.805z"/><path style="fill:var(--color2, #000)" d="M15.876 9.471c1.076.63 1.101 2.715.056 4.554s-2.837 2.859-3.912 2.229c-1.076-.63-1.101-2.715-.056-4.554s2.838-2.859 3.912-2.229zm.181-.318c-1.269-.743-3.241.315-4.406 2.364s-1.081 4.312.188 5.056c1.269.743 3.241-.315 4.406-2.364s1.082-4.312-.188-5.056z"/><path fill="#fff" style="fill:var(--color1, #fff)" d="M19.131 20.636c1.182.693 3.044-.335 4.159-2.296s1.06-4.112-.122-4.805c-1.182-.693-3.044.335-4.159 2.296s-1.06 4.112.122 4.805z"/><path style="fill:var(--color2, #000)" d="M23.078 13.693c1.076.63 1.101 2.715.056 4.554s-2.837 2.859-3.912 2.229c-1.076-.63-1.101-2.715-.056-4.554s2.838-2.859 3.912-2.229zm.181-.318c-1.269-.743-3.241.315-4.406 2.364s-1.081 4.312.188 5.056c1.269.743 3.241-.315 4.406-2.364s1.082-4.312-.188-5.056zm-10.307 1.236c.663.389 1.7-.174 2.316-1.257s.577-2.276-.086-2.665c-.663-.389-1.7.174-2.316 1.257s-.577 2.276.086 2.665z"/><path style="fill:var(--color2, #000)" d="M15.152 10.743c.634.371.662 1.528.064 2.581s-1.599 1.606-2.233 1.235c-.634-.371-.662-1.528-.064-2.581s1.601-1.605 2.233-1.235zm.06-.106c-.692-.406-1.766.168-2.398 1.28s-.584 2.342.108 2.748c.692.406 1.766-.168 2.398-1.28s.584-2.342-.108-2.748zm4.945 8.197c.663.389 1.7-.174 2.316-1.257s.577-2.276-.086-2.665c-.663-.389-1.7.174-2.316 1.257s-.577 2.276.086 2.665z"/><path style="fill:var(--color2, #000)" d="M22.356 14.965c.634.371.662 1.528.064 2.581s-1.599 1.606-2.233 1.235-.662-1.529-.064-2.581c.598-1.052 1.601-1.606 2.233-1.235zm.06-.106c-.692-.406-1.766.168-2.398 1.28s-.584 2.342.108 2.748c.692.406 1.766-.168 2.398-1.279s.584-2.342-.108-2.748z"/><path fill="#fff" style="fill:var(--color1, #fff)" d="M14.372 13.112c.399.234.965-.004 1.265-.53s.219-1.143-.18-1.377c-.399-.234-.965.004-1.265.53s-.219 1.143.18 1.377zm7.204 4.222c.399.234.965-.004 1.265-.53s.219-1.143-.18-1.377c-.399-.234-.965.004-1.265.53s-.219 1.143.18 1.377z"/><path style="fill:var(--color2, #000)" d="M14.965 6.548a4.335 4.335 0 0 1 3.286 1.925c.261.389.89.028.628-.363-.904-1.35-2.313-2.18-3.919-2.296-.463-.034-.458.7.004.734zm7.516 4.406a4.338 4.338 0 0 1 3.286 1.925c.261.389.89.028.628-.363-.904-1.35-2.313-2.18-3.919-2.296-.463-.034-.458.7.004.734z"/><path fill="none" stroke="#000" style="stroke:var(--color2, #000)" stroke-miterlimit="10" stroke-width=".661" d="M12.899 23.272c-5.391-3.16-8.25-8.379-6.386-11.657m19.524 11.443c-1.864 3.278-7.746 3.374-13.137.214M5.215 11.206l2.719.604m17.357 10.599 1.55 1.191"/></symbol><symbol id="icon-speck-desktop" viewBox="0 0 100 32"><path fill="#f8d24e" style="fill:var(--color3, #f8d24e)" d="M45.691 25.73c0 .287-.218.519-.487.519s-.487-.232-.487-.519c0-.287.218-.519.487-.519s.487.232.487.519zm1.136-.692c0 .287-.218.519-.487.519s-.487-.232-.487-.519c0-.287.218-.519.487-.519s.487.232.487.519zm-2.029 2.595c0 .287-.218.519-.487.519s-.487-.232-.487-.519c0-.287.218-.519.487-.519s.487.232.487.519zm1.055-.692c0 .287-.218.519-.487.519s-.487-.232-.487-.519c0-.287.218-.519.487-.519s.487.232.487.519zm1.217-.778c0 .287-.218.519-.487.519s-.487-.232-.487-.519c0-.287.218-.519.487-.519s.487.232.487.519zm1.136-.692c0 .287-.218.519-.487.519s-.487-.232-.487-.519c0-.287.218-.519.487-.519s.487.232.487.519z"/><path fill="#f8d24e" style="fill:var(--color3, #f8d24e)" d="M46.583 27.72c0 .287-.218.519-.487.519s-.487-.232-.487-.519c0-.287.218-.519.487-.519s.487.232.487.519zm1.055-.692c0 .287-.218.519-.487.519s-.487-.232-.487-.519c0-.287.218-.519.487-.519s.487.232.487.519zm1.218-.779c0 .287-.218.519-.487.519s-.487-.232-.487-.519c0-.287.218-.519.487-.519s.487.232.487.519zm1.136-.692c0 .287-.218.519-.487.519s-.487-.232-.487-.519c0-.287.218-.519.487-.519s.487.232.487.519zm-1.299 2.163c0 .287-.218.519-.487.519s-.487-.232-.487-.519c0-.287.218-.519.487-.519s.487.232.487.519zm1.055-.692c0 .287-.218.519-.487.519s-.487-.232-.487-.519c0-.287.218-.519.487-.519s.487.232.487.519zm1.218-.779c0 .287-.218.519-.487.519s-.487-.232-.487-.519c0-.287.218-.519.487-.519s.487.232.487.519zm1.136-.692c0 .287-.218.519-.487.519s-.487-.232-.487-.519c0-.287.218-.519.487-.519s.487.232.487.519z"/><path fill="#f8d24e" style="fill:var(--color3, #f8d24e)" d="M50.479 27.633c0 .287-.218.519-.487.519s-.487-.232-.487-.519c0-.287.218-.519.487-.519s.487.232.487.519zm1.055-.692c0 .287-.218.519-.487.519s-.487-.232-.487-.519c0-.287.218-.519.487-.519s.487.232.487.519zm1.217-.778c0 .287-.218.519-.487.519s-.487-.232-.487-.519c0-.287.218-.519.487-.519s.487.232.487.519zm1.136-.692c0 .287-.218.519-.487.519s-.487-.232-.487-.519c0-.287.218-.519.487-.519s.487.232.487.519zm-1.379 2.076c0 .287-.218.519-.487.519s-.487-.232-.487-.519c0-.287.218-.519.487-.519s.487.232.487.519zm1.055-.692c0 .287-.218.519-.487.519s-.487-.232-.487-.519c0-.287.218-.519.487-.519s.487.232.487.519zm1.217-.779c0 .287-.218.519-.487.519s-.487-.232-.487-.519c0-.287.218-.519.487-.519s.487.232.487.519zm1.136-.692c0 .287-.218.519-.487.519s-.487-.232-.487-.519c0-.287.218-.519.487-.519s.487.232.487.519z"/><path fill="#f8d24e" style="fill:var(--color3, #f8d24e)" d="M54.374 25.298c0 .287-.218.519-.487.519s-.487-.232-.487-.519c0-.287.218-.519.487-.519s.487.232.487.519zm1.055-.692c0 .287-.218.519-.487.519s-.487-.232-.487-.519c0-.287.218-.519.487-.519s.487.232.487.519zm1.218-.779c0 .287-.218.519-.487.519s-.487-.232-.487-.519c0-.287.218-.519.487-.519s.487.232.487.519zm1.136-.692c0 .287-.218.519-.487.519s-.487-.232-.487-.519c0-.287.218-.519.487-.519s.487.232.487.519z"/></symbol><symbol id="icon-speck-tablet" viewBox="0 0 361 32"><path fill="#f8d24e" style="fill:var(--color3, #f8d24e)" d="M309.949 29.706c0 .998-.789 1.808-1.762 1.808s-1.762-.809-1.762-1.808c0-.998.789-1.808 1.762-1.808s1.762.809 1.762 1.808zm3.818-2.411c0 .998-.789 1.808-1.762 1.808s-1.762-.809-1.762-1.808c0-.998.789-1.808 1.762-1.808s1.762.809 1.762 1.808zm4.405-2.712c0 .998-.789 1.808-1.762 1.808s-1.762-.809-1.762-1.808c0-.998.789-1.808 1.762-1.808s1.762.809 1.762 1.808zm4.112-2.411c0 .998-.789 1.808-1.762 1.808s-1.762-.809-1.762-1.808c0-.998.789-1.808 1.762-1.808s1.762.809 1.762 1.808zm-2.35 6.328c0 .998-.789 1.808-1.762 1.808s-1.762-.809-1.762-1.808c0-.998.789-1.808 1.762-1.808s1.762.809 1.762 1.808zm3.818-2.41c0 .998-.789 1.808-1.762 1.808s-1.762-.809-1.762-1.808c0-.998.789-1.808 1.762-1.808s1.762.809 1.762 1.808zm4.406-2.712c0 .998-.789 1.808-1.762 1.808s-1.762-.809-1.762-1.808c0-.998.789-1.808 1.762-1.808s1.762.809 1.762 1.808zm4.111-2.411c0 .998-.789 1.808-1.762 1.808s-1.762-.809-1.762-1.808c0-.998.789-1.808 1.762-1.808s1.762.809 1.762 1.808zm-3.817 6.629c0 .998-.789 1.808-1.762 1.808s-1.762-.809-1.762-1.808c0-.998.789-1.808 1.762-1.808s1.762.809 1.762 1.808zm3.817-2.411c0 .998-.789 1.808-1.762 1.808s-1.762-.809-1.762-1.808c0-.998.789-1.808 1.762-1.808s1.762.809 1.762 1.808zm4.406-2.711c0 .998-.789 1.808-1.762 1.808s-1.762-.809-1.762-1.808c0-.998.789-1.808 1.762-1.808s1.762.809 1.762 1.808zm4.111-2.411c0 .998-.789 1.808-1.762 1.808s-1.762-.809-1.762-1.808c0-.998.789-1.808 1.762-1.808s1.762.809 1.762 1.808zm-4.111 6.328c0 .998-.789 1.808-1.762 1.808s-1.762-.809-1.762-1.808c0-.998.789-1.808 1.762-1.808s1.762.809 1.762 1.808zm3.817-2.411c0 .998-.789 1.808-1.762 1.808s-1.762-.809-1.762-1.808c0-.998.789-1.808 1.762-1.808s1.762.809 1.762 1.808zm4.406-2.712c0 .998-.789 1.808-1.762 1.808s-1.762-.809-1.762-1.808c0-.998.789-1.808 1.762-1.808s1.762.809 1.762 1.808zm4.112-2.41c0 .998-.789 1.808-1.762 1.808s-1.762-.809-1.762-1.808c0-.998.789-1.808 1.762-1.808s1.762.809 1.762 1.808zm-9.692 10.848c0 .998-.789 1.808-1.762 1.808s-1.762-.809-1.762-1.808c0-.998.789-1.808 1.762-1.808s1.762.809 1.762 1.808zm3.818-2.411c0 .998-.789 1.808-1.762 1.808s-1.762-.809-1.762-1.808c0-.998.789-1.808 1.762-1.808s1.762.809 1.762 1.808zm5.286 2.712c0 .998-.789 1.808-1.762 1.808s-1.762-.809-1.762-1.808c0-.998.789-1.808 1.762-1.808s1.762.809 1.762 1.808zm-.881-5.424c0 .998-.789 1.808-1.762 1.808s-1.762-.809-1.762-1.808c0-.998.789-1.808 1.762-1.808s1.762.809 1.762 1.808zm5.287 2.712c0 .998-.789 1.808-1.762 1.808s-1.762-.809-1.762-1.808c0-.998.789-1.808 1.762-1.808s1.762.809 1.762 1.808zm4.111 2.712c0 .998-.789 1.808-1.762 1.808s-1.762-.809-1.762-1.808c0-.998.789-1.808 1.762-1.808s1.762.809 1.762 1.808zm-5.287-7.835c0 .998-.789 1.808-1.762 1.808s-1.762-.809-1.762-1.808c0-.998.789-1.808 1.762-1.808s1.762.809 1.762 1.808zm5.287 2.712c0 .998-.789 1.808-1.762 1.808s-1.762-.809-1.762-1.808c0-.998.789-1.808 1.762-1.808s1.762.809 1.762 1.808zm4.112 2.712c0 .998-.789 1.808-1.762 1.808s-1.762-.809-1.762-1.808c0-.998.789-1.808 1.762-1.808s1.762.809 1.762 1.808zM292.034 9.818c0 .998-.789 1.808-1.762 1.808s-1.762-.809-1.762-1.808c0-.998.789-1.808 1.762-1.808s1.762.809 1.762 1.808zm3.818-2.411c0 .998-.789 1.808-1.762 1.808s-1.762-.809-1.762-1.808c0-.998.789-1.808 1.762-1.808s1.762.809 1.762 1.808zm4.406-2.711c0 .998-.789 1.808-1.762 1.808s-1.762-.809-1.762-1.808c0-.998.789-1.808 1.762-1.808s1.762.809 1.762 1.808zm4.11-2.411c0 .998-.789 1.808-1.762 1.808s-1.762-.809-1.762-1.808c0-.998.789-1.808 1.762-1.808s1.762.809 1.762 1.808zm-19.676 7.231c0 .998-.789 1.808-1.762 1.808s-1.762-.809-1.762-1.808c0-.998.789-1.808 1.762-1.808s1.762.809 1.762 1.808zm3.818-2.41c0 .999-.789 1.808-1.762 1.808s-1.762-.809-1.762-1.808c0-.998.789-1.808 1.762-1.808s1.762.809 1.762 1.808zm4.405-2.712c0 .998-.789 1.808-1.762 1.808s-1.762-.809-1.762-1.808c0-.998.789-1.808 1.762-1.808s1.762.809 1.762 1.808zm4.112-2.41c0 .998-.789 1.808-1.762 1.808s-1.762-.809-1.762-1.808.789-1.808 1.762-1.808 1.762.809 1.762 1.808zm4.112 27.722c0 .998-.789 1.808-1.762 1.808s-1.762-.809-1.762-1.808c0-.998.789-1.808 1.762-1.808s1.762.809 1.762 1.808zm3.817-2.411c0 .998-.789 1.808-1.762 1.808s-1.762-.809-1.762-1.808c0-.998.789-1.808 1.762-1.808s1.762.809 1.762 1.808zm4.406-2.712c0 .998-.789 1.808-1.762 1.808s-1.762-.809-1.762-1.808c0-.998.789-1.808 1.762-1.808s1.762.809 1.762 1.808zm4.112-2.411c0 .998-.789 1.808-1.762 1.808s-1.762-.809-1.762-1.808c0-.998.789-1.808 1.762-1.808s1.762.809 1.762 1.808zm-17.034 5.726c0 .998-.789 1.808-1.762 1.808s-1.762-.809-1.762-1.808c0-.998.789-1.808 1.762-1.808s1.762.809 1.762 1.808zm3.818-2.411c0 .998-.789 1.808-1.762 1.808s-1.762-.809-1.762-1.808c0-.998.789-1.808 1.762-1.808s1.762.809 1.762 1.808zm4.405-2.712c0 .998-.789 1.808-1.762 1.808s-1.762-.809-1.762-1.808c0-.998.789-1.808 1.762-1.808s1.762.809 1.762 1.808zm4.111-2.41c0 .998-.789 1.808-1.762 1.808s-1.762-.809-1.762-1.808c0-.998.789-1.808 1.762-1.808s1.762.809 1.762 1.808zm-10.573 1.205c0 .998-.789 1.808-1.762 1.808s-1.762-.809-1.762-1.808c0-.998.789-1.808 1.762-1.808s1.762.809 1.762 1.808zm3.818-2.411c0 .998-.789 1.808-1.762 1.808s-1.762-.809-1.762-1.808c0-.998.789-1.808 1.762-1.808s1.762.809 1.762 1.808zm4.406-2.712c0 .998-.789 1.808-1.762 1.808s-1.762-.809-1.762-1.808c0-.998.789-1.808 1.762-1.808s1.762.809 1.762 1.808zm4.111-2.41c0 .998-.789 1.808-1.762 1.808s-1.762-.809-1.762-1.808c0-.998.789-1.808 1.762-1.808s1.762.809 1.762 1.808zm-12.335-3.013c0 .998-.789 1.808-1.762 1.808s-1.762-.809-1.762-1.808c0-.998.789-1.808 1.762-1.808s1.762.809 1.762 1.808zm3.818-2.411c0 .998-.789 1.808-1.762 1.808s-1.762-.809-1.762-1.808c0-.998.789-1.808 1.762-1.808s1.762.809 1.762 1.808zm4.406-2.712c0 .998-.789 1.808-1.762 1.808s-1.762-.809-1.762-1.808c0-.998.789-1.808 1.762-1.808s1.762.809 1.762 1.808zm4.111-2.411c0 .998-.789 1.808-1.762 1.808s-1.762-.809-1.762-1.808c0-.998.789-1.808 1.762-1.808s1.762.809 1.762 1.808zm-13.215 13.259c0 .998-.789 1.808-1.762 1.808s-1.762-.809-1.762-1.808c0-.998.789-1.808 1.762-1.808s1.762.809 1.762 1.808zm3.818-2.411c0 .998-.789 1.808-1.762 1.808s-1.762-.809-1.762-1.808c0-.998.789-1.808 1.762-1.808s1.762.809 1.762 1.808zm4.405-2.712c0 .998-.789 1.808-1.762 1.808s-1.762-.809-1.762-1.808c0-.998.789-1.808 1.762-1.808s1.762.809 1.762 1.808zm4.111-2.41c0 .998-.789 1.808-1.762 1.808s-1.762-.809-1.762-1.808c0-.998.789-1.808 1.762-1.808s1.762.809 1.762 1.808zM278.819 8.01c0 .998-.789 1.808-1.762 1.808s-1.762-.809-1.762-1.808c0-.998.789-1.808 1.762-1.808s1.762.809 1.762 1.808zm3.817-2.411c0 .998-.789 1.808-1.762 1.808s-1.762-.809-1.762-1.808c0-.998.789-1.808 1.762-1.808s1.762.809 1.762 1.808zm4.406-2.711c0 .998-.789 1.808-1.762 1.808s-1.762-.809-1.762-1.808c0-.998.789-1.808 1.762-1.808s1.762.809 1.762 1.808z"/><path fill="#f8d24e" style="fill:var(--color3, #f8d24e)" d="M284.986 9.818c.973 0 1.762-.809 1.762-1.808s-.789-1.808-1.762-1.808-1.762.809-1.762 1.808c0 .998.789 1.808 1.762 1.808zM3.524 28.466c0 .998-.789 1.808-1.762 1.808S0 29.465 0 28.466c0-.998.789-1.808 1.762-1.808s1.762.809 1.762 1.808zm3.818-2.411c0 .998-.789 1.808-1.762 1.808s-1.762-.809-1.762-1.808c0-.998.789-1.808 1.762-1.808s1.762.809 1.762 1.808zm4.405-2.712c0 .998-.789 1.808-1.762 1.808s-1.762-.809-1.762-1.808c0-.998.789-1.808 1.762-1.808s1.762.809 1.762 1.808zm4.112-2.41c0 .998-.789 1.808-1.762 1.808s-1.762-.809-1.762-1.808c0-.998.789-1.808 1.762-1.808s1.762.809 1.762 1.808zm9.986 8.437c0 .998-.789 1.808-1.762 1.808s-1.762-.809-1.762-1.808c0-.998.789-1.808 1.762-1.808s1.762.809 1.762 1.808zm3.817-2.411c0 .998-.789 1.808-1.762 1.808s-1.762-.809-1.762-1.808c0-.998.789-1.808 1.762-1.808s1.762.809 1.762 1.808zm4.406-2.712c0 .998-.789 1.808-1.762 1.808s-1.762-.809-1.762-1.808c0-.998.789-1.808 1.762-1.808s1.762.809 1.762 1.808zm4.111-2.41c0 .998-.789 1.808-1.762 1.808s-1.762-.809-1.762-1.808c0-.998.789-1.808 1.762-1.808s1.762.809 1.762 1.808zm-3.23 6.327c0 .998-.789 1.808-1.762 1.808s-1.762-.809-1.762-1.808c0-.998.789-1.808 1.762-1.808s1.762.809 1.762 1.808zm3.818-2.41c0 .998-.789 1.808-1.762 1.808s-1.762-.809-1.762-1.808c0-.998.789-1.808 1.762-1.808s1.762.809 1.762 1.808zm4.405-2.712c0 .998-.789 1.808-1.762 1.808s-1.762-.809-1.762-1.808c0-.998.789-1.808 1.762-1.808s1.762.809 1.762 1.808zm4.111-2.411c0 .998-.789 1.808-1.762 1.808s-1.762-.809-1.762-1.808c0-.998.789-1.808 1.762-1.808s1.762.809 1.762 1.808zm4.406-3.616c0 .998-.789 1.808-1.762 1.808s-1.762-.809-1.762-1.808c0-.998.789-1.808 1.762-1.808s1.762.809 1.762 1.808zm-9.398 2.11c0 .998-.789 1.808-1.762 1.808s-1.762-.809-1.762-1.808c0-.998.789-1.808 1.762-1.808s1.762.809 1.762 1.808zm-24.67 9.944c0 .998-.789 1.808-1.762 1.808s-1.762-.809-1.762-1.808c0-.998.789-1.808 1.762-1.808s1.762.809 1.762 1.808zm3.818-2.411c0 .998-.789 1.808-1.762 1.808s-1.762-.809-1.762-1.808c0-.998.789-1.808 1.762-1.808s1.762.809 1.762 1.808zm4.406-2.712c0 .998-.789 1.808-1.762 1.808s-1.762-.809-1.762-1.808c0-.998.789-1.808 1.762-1.808s1.762.809 1.762 1.808zm4.111-2.411c0 .998-.789 1.808-1.762 1.808s-1.762-.809-1.762-1.808c0-.998.789-1.808 1.762-1.808s1.762.809 1.762 1.808zm-19.677 7.232c0 .998-.789 1.808-1.762 1.808s-1.762-.809-1.762-1.808c0-.998.789-1.808 1.762-1.808s1.762.809 1.762 1.808zm3.818-2.411c0 .998-.789 1.808-1.762 1.808s-1.762-.809-1.762-1.808c0-.998.789-1.808 1.762-1.808s1.762.809 1.762 1.808z"/><path fill="#f8d24e" style="fill:var(--color3, #f8d24e)" d="M18.502 23.644c0 .998-.789 1.808-1.762 1.808s-1.762-.809-1.762-1.808c0-.998.789-1.808 1.762-1.808s1.762.809 1.762 1.808zm4.112-2.41c0 .998-.789 1.808-1.762 1.808s-1.762-.809-1.762-1.808c0-.998.789-1.808 1.762-1.808s1.762.809 1.762 1.808z"/></symbol><symbol id="icon-speck-mobile" viewBox="0 0 204 32"><path fill="#f8d24e" style="fill:var(--color3, #f8d24e)" d="M153.984 29.307c0 .972-.766 1.759-1.712 1.759s-1.712-.788-1.712-1.759c0-.972.766-1.759 1.712-1.759s1.712.788 1.712 1.759zm3.709-2.346c0 .972-.766 1.759-1.712 1.759s-1.712-.788-1.712-1.759c0-.972.766-1.759 1.712-1.759s1.712.788 1.712 1.759zm4.278-2.639c0 .972-.766 1.759-1.712 1.759s-1.712-.788-1.712-1.759c0-.972.766-1.759 1.712-1.759s1.712.788 1.712 1.759zm3.995-2.346c0 .972-.766 1.759-1.712 1.759s-1.712-.788-1.712-1.759c0-.972.766-1.759 1.712-1.759s1.712.788 1.712 1.759zm-2.283 6.158c0 .972-.766 1.759-1.712 1.759s-1.712-.788-1.712-1.759c0-.972.766-1.759 1.712-1.759s1.712.788 1.712 1.759zm3.709-2.345c0 .972-.766 1.759-1.712 1.759s-1.712-.788-1.712-1.759c0-.972.766-1.759 1.712-1.759s1.712.788 1.712 1.759zm4.279-2.64c0 .972-.766 1.759-1.712 1.759s-1.712-.788-1.712-1.759c0-.972.766-1.759 1.712-1.759s1.712.788 1.712 1.759zm3.994-2.345c0 .972-.766 1.759-1.712 1.759s-1.712-.788-1.712-1.759c0-.972.766-1.759 1.712-1.759s1.712.788 1.712 1.759zm-3.708 6.451c0 .972-.766 1.759-1.712 1.759s-1.712-.788-1.712-1.759c0-.972.766-1.759 1.712-1.759s1.712.788 1.712 1.759zm3.709-2.346c0 .972-.766 1.759-1.712 1.759s-1.712-.788-1.712-1.759c0-.972.766-1.759 1.712-1.759s1.712.788 1.712 1.759zm4.279-2.639c0 .972-.766 1.759-1.712 1.759s-1.712-.788-1.712-1.759c0-.972.766-1.759 1.712-1.759s1.712.788 1.712 1.759zm3.993-2.346c0 .972-.766 1.759-1.712 1.759s-1.712-.788-1.712-1.759c0-.972.766-1.759 1.712-1.759s1.712.788 1.712 1.759zm-3.993 6.158c0 .972-.766 1.759-1.712 1.759s-1.712-.788-1.712-1.759c0-.972.766-1.759 1.712-1.759s1.712.788 1.712 1.759zm3.708-2.346c0 .972-.766 1.759-1.712 1.759s-1.712-.788-1.712-1.759c0-.972.766-1.759 1.712-1.759s1.712.788 1.712 1.759zm4.279-2.639c0 .972-.766 1.759-1.712 1.759s-1.712-.788-1.712-1.759c0-.972.766-1.759 1.712-1.759s1.712.788 1.712 1.759zm3.995-2.346c0 .972-.766 1.759-1.712 1.759s-1.712-.788-1.712-1.759c0-.972.766-1.759 1.712-1.759s1.712.788 1.712 1.759zm-9.415 10.556c0 .972-.766 1.759-1.712 1.759s-1.712-.788-1.712-1.759c0-.972.766-1.759 1.712-1.759s1.712.788 1.712 1.759zm3.71-2.346c0 .972-.766 1.759-1.712 1.759s-1.712-.788-1.712-1.759c0-.972.766-1.759 1.712-1.759s1.712.788 1.712 1.759zm5.135 2.64c0 .972-.766 1.759-1.712 1.759s-1.712-.788-1.712-1.759c0-.972.766-1.759 1.712-1.759s1.712.788 1.712 1.759zm-.856-5.279c0 .972-.766 1.759-1.712 1.759s-1.712-.788-1.712-1.759c0-.972.766-1.759 1.712-1.759s1.712.788 1.712 1.759zm5.135 2.639c0 .972-.766 1.759-1.712 1.759s-1.712-.788-1.712-1.759c0-.972.766-1.759 1.712-1.759s1.712.788 1.712 1.759zm3.994 2.64c0 .972-.766 1.759-1.712 1.759s-1.712-.788-1.712-1.759c0-.972.766-1.759 1.712-1.759s1.712.788 1.712 1.759zm-5.136-7.625c0 .972-.766 1.759-1.712 1.759s-1.712-.788-1.712-1.759c0-.972.766-1.759 1.712-1.759s1.712.788 1.712 1.759zm5.136 2.639c0 .972-.766 1.759-1.712 1.759s-1.712-.788-1.712-1.759c0-.972.766-1.759 1.712-1.759s1.712.788 1.712 1.759zm3.994 2.64c0 .972-.766 1.759-1.712 1.759s-1.712-.788-1.712-1.759c0-.972.766-1.759 1.712-1.759s1.712.788 1.712 1.759zM136.582 9.954c0 .972-.766 1.759-1.712 1.759s-1.712-.788-1.712-1.759c0-.972.766-1.759 1.712-1.759s1.712.788 1.712 1.759zm3.708-2.346c0 .972-.766 1.759-1.712 1.759s-1.712-.788-1.712-1.759c0-.972.766-1.759 1.712-1.759s1.712.788 1.712 1.759zm4.281-2.639c0 .972-.766 1.759-1.712 1.759s-1.712-.788-1.712-1.759c0-.972.766-1.759 1.712-1.759s1.712.788 1.712 1.759zm3.993-2.346c0 .972-.766 1.759-1.712 1.759s-1.712-.788-1.712-1.759c0-.972.766-1.759 1.712-1.759s1.712.788 1.712 1.759zM129.449 9.66c0 .972-.766 1.759-1.712 1.759s-1.712-.788-1.712-1.759c0-.972.766-1.759 1.712-1.759s1.712.788 1.712 1.759zm3.708-2.345c0 .972-.766 1.759-1.712 1.759s-1.712-.788-1.712-1.759c0-.972.766-1.759 1.712-1.759s1.712.788 1.712 1.759zm4.28-2.639c0 .972-.766 1.759-1.712 1.759s-1.712-.788-1.712-1.759c0-.972.766-1.759 1.712-1.759s1.712.788 1.712 1.759zm3.994-2.346c0 .972-.766 1.759-1.712 1.759s-1.712-.788-1.712-1.759c0-.972.766-1.759 1.712-1.759s1.712.788 1.712 1.759zm3.994 26.977c0 .972-.766 1.759-1.712 1.759s-1.712-.788-1.712-1.759c0-.972.766-1.759 1.712-1.759s1.712.788 1.712 1.759zm3.708-2.346c0 .972-.766 1.759-1.712 1.759s-1.712-.788-1.712-1.759c0-.972.766-1.759 1.712-1.759s1.712.788 1.712 1.759zm4.279-2.639c0 .972-.766 1.759-1.712 1.759s-1.712-.788-1.712-1.759c0-.972.766-1.759 1.712-1.759s1.712.788 1.712 1.759zm3.995-2.346c0 .972-.766 1.759-1.712 1.759s-1.712-.788-1.712-1.759c0-.972.766-1.759 1.712-1.759s1.712.788 1.712 1.759zm-16.546 5.572c0 .972-.766 1.759-1.712 1.759s-1.712-.788-1.712-1.759c0-.972.766-1.759 1.712-1.759s1.712.788 1.712 1.759zm3.708-2.346c0 .972-.766 1.759-1.712 1.759s-1.712-.788-1.712-1.759c0-.972.766-1.759 1.712-1.759s1.712.788 1.712 1.759zm4.279-2.639c0 .972-.766 1.759-1.712 1.759s-1.712-.788-1.712-1.759c0-.972.766-1.759 1.712-1.759s1.712.788 1.712 1.759zm3.995-2.346c0 .972-.766 1.759-1.712 1.759s-1.712-.788-1.712-1.759c0-.972.766-1.759 1.712-1.759s1.712.788 1.712 1.759zm-10.271 1.173c0 .972-.766 1.759-1.712 1.759s-1.712-.788-1.712-1.759c0-.972.766-1.759 1.712-1.759s1.712.788 1.712 1.759zm3.708-2.346c0 .972-.766 1.759-1.712 1.759s-1.712-.788-1.712-1.759c0-.972.766-1.759 1.712-1.759s1.712.788 1.712 1.759zm4.281-2.639c0 .972-.766 1.759-1.712 1.759s-1.712-.788-1.712-1.759c0-.972.766-1.759 1.712-1.759s1.712.788 1.712 1.759zm3.994-2.346c0 .972-.766 1.759-1.712 1.759s-1.712-.788-1.712-1.759c0-.972.766-1.759 1.712-1.759s1.712.788 1.712 1.759zm-11.983-2.932c0 .972-.766 1.759-1.712 1.759s-1.712-.788-1.712-1.759c0-.972.766-1.759 1.712-1.759s1.712.788 1.712 1.759zm3.708-2.346c0 .972-.766 1.759-1.712 1.759s-1.712-.788-1.712-1.759c0-.972.766-1.759 1.712-1.759s1.712.788 1.712 1.759zm4.281-2.639c0 .972-.766 1.759-1.712 1.759s-1.712-.788-1.712-1.759c0-.972.766-1.759 1.712-1.759s1.712.788 1.712 1.759zm3.994-2.346c0 .972-.766 1.759-1.712 1.759s-1.712-.788-1.712-1.759c0-.972.766-1.759 1.712-1.759s1.712.788 1.712 1.759zm-12.838 12.903c0 .972-.766 1.759-1.712 1.759s-1.712-.788-1.712-1.759c0-.972.766-1.759 1.712-1.759s1.712.788 1.712 1.759zm3.709-2.347c0 .972-.766 1.759-1.712 1.759s-1.712-.788-1.712-1.759c0-.972.766-1.759 1.712-1.759s1.712.788 1.712 1.759zm4.279-2.639c0 .972-.766 1.759-1.712 1.759s-1.712-.788-1.712-1.759c0-.972.766-1.759 1.712-1.759s1.712.788 1.712 1.759zm3.993-2.345c0 .972-.766 1.759-1.712 1.759s-1.712-.788-1.712-1.759c0-.972.766-1.759 1.712-1.759s1.712.788 1.712 1.759zm-29.954-1.174c0 .972-.766 1.759-1.712 1.759s-1.712-.788-1.712-1.759c0-.972.766-1.759 1.712-1.759s1.712.788 1.712 1.759zm3.709-2.346c0 .972-.766 1.759-1.712 1.759s-1.712-.788-1.712-1.759c0-.972.766-1.759 1.712-1.759s1.712.788 1.712 1.759zm4.279-2.639c0 .972-.766 1.759-1.712 1.759s-1.712-.788-1.712-1.759c0-.972.766-1.759 1.712-1.759s1.712.788 1.712 1.759z"/><path fill="#f8d24e" style="fill:var(--color3, #f8d24e)" d="M129.735 9.954c.945 0 1.711-.788 1.711-1.759s-.766-1.759-1.711-1.759-1.712.788-1.712 1.759c0 .972.767 1.759 1.712 1.759zM51.023 21.253c.145.975-.505 1.886-1.454 2.035s-1.835-.52-1.98-1.494c-.145-.975.505-1.886 1.454-2.035s1.835.52 1.98 1.494zm3.369-2.94c.145.975-.505 1.886-1.454 2.035s-1.835-.52-1.98-1.494c-.145-.975.505-1.886 1.454-2.035s1.835.52 1.98 1.494zm3.898-3.324c.145.975-.505 1.886-1.454 2.035s-1.835-.52-1.98-1.494c-.145-.975.505-1.886 1.454-2.035s1.835.52 1.98 1.494zm3.656-2.984c.145.975-.505 1.886-1.454 2.035s-1.835-.52-1.98-1.494c-.145-.975.505-1.886 1.454-2.035s1.835.52 1.98 1.494zM.197 18.87c0 .986-.778 1.785-1.737 1.785s-1.737-.799-1.737-1.785c0-.986.778-1.785 1.737-1.785s1.737.799 1.737 1.785zm4.344-2.678c0 .986-.778 1.785-1.737 1.785s-1.737-.799-1.737-1.785c0-.986.778-1.785 1.737-1.785s1.737.799 1.737 1.785zm4.053-2.381c0 .986-.778 1.785-1.737 1.785s-1.737-.799-1.737-1.785c0-.986.778-1.785 1.737-1.785s1.737.799 1.737 1.785zm-6.659 9.522c0 .986-.778 1.785-1.737 1.785s-1.737-.799-1.737-1.785c0-.986.778-1.785 1.737-1.785s1.737.799 1.737 1.785zm4.344-2.678c0 .986-.778 1.785-1.737 1.785s-1.737-.799-1.737-1.785c0-.986.778-1.785 1.737-1.785s1.737.799 1.737 1.785zm4.052-2.381c0 .986-.778 1.785-1.737 1.785s-1.737-.799-1.737-1.785c0-.986.778-1.785 1.737-1.785s1.737.799 1.737 1.785zm-7.817 9.82c0 .986-.778 1.785-1.737 1.785S-.96 29.08-.96 28.094c0-.986.778-1.785 1.737-1.785s1.737.799 1.737 1.785zm3.763-2.38c0 .986-.778 1.785-1.737 1.785s-1.737-.799-1.737-1.785c0-.986.778-1.785 1.737-1.785s1.737.799 1.737 1.785zm4.343-2.678c0 .986-.778 1.785-1.737 1.785s-1.737-.799-1.737-1.785c0-.986.778-1.785 1.737-1.785s1.737.799 1.737 1.785zm4.053-2.381c0 .986-.778 1.785-1.737 1.785s-1.737-.799-1.737-1.785c0-.986.778-1.785 1.737-1.785s1.737.799 1.737 1.785zm-7.239 8.928c0 .986-.778 1.785-1.737 1.785s-1.737-.799-1.737-1.785c0-.986.778-1.785 1.737-1.785s1.737.799 1.737 1.785zm3.764-2.381c0 .986-.778 1.785-1.737 1.785s-1.737-.799-1.737-1.785c0-.986.778-1.785 1.737-1.785s1.737.799 1.737 1.785zm4.344-2.678c0 .986-.778 1.785-1.737 1.785s-1.737-.799-1.737-1.785c0-.986.778-1.785 1.737-1.785s1.737.799 1.737 1.785zm4.051-2.381c0 .986-.778 1.785-1.737 1.785s-1.737-.799-1.737-1.785c0-.986.778-1.785 1.737-1.785s1.737.799 1.737 1.785z"/><path fill="#f8d24e" style="fill:var(--color3, #f8d24e)" d="M13.805 29.88c0 .986-.778 1.785-1.737 1.785s-1.737-.799-1.737-1.785c0-.986.778-1.785 1.737-1.785s1.737.799 1.737 1.785zm3.763-2.38c0 .986-.778 1.785-1.737 1.785s-1.737-.799-1.737-1.785c0-.986.778-1.785 1.737-1.785s1.737.799 1.737 1.785zm4.344-2.679c0 .986-.778 1.785-1.737 1.785s-1.737-.799-1.737-1.785c0-.986.778-1.785 1.737-1.785s1.737.799 1.737 1.785zm4.052-2.38c0 .986-.778 1.785-1.737 1.785s-1.737-.799-1.737-1.785c0-.986.778-1.785 1.737-1.785s1.737.799 1.737 1.785zm-4.632 7.439c0 .986-.778 1.785-1.737 1.785s-1.737-.799-1.737-1.785c0-.986.778-1.785 1.737-1.785s1.737.799 1.737 1.785zm3.763-2.381c0 .986-.778 1.785-1.737 1.785s-1.737-.799-1.737-1.785c0-.986.778-1.785 1.737-1.785s1.737.799 1.737 1.785zm4.343-2.678c0 .986-.778 1.785-1.737 1.785s-1.737-.799-1.737-1.785c0-.986.778-1.785 1.737-1.785s1.737.799 1.737 1.785zm4.054-2.38c0 .986-.778 1.785-1.737 1.785s-1.737-.799-1.737-1.785c0-.986.778-1.785 1.737-1.785s1.737.799 1.737 1.785z"/><path fill="#f8d24e" style="fill:var(--color3, #f8d24e)" d="M27.7 29.582c0 .986-.778 1.785-1.737 1.785s-1.737-.799-1.737-1.785c0-.986.778-1.785 1.737-1.785s1.737.799 1.737 1.785zm3.764-2.38c0 .986-.778 1.785-1.737 1.785s-1.737-.799-1.737-1.785c0-.986.778-1.785 1.737-1.785s1.737.799 1.737 1.785zm4.343-2.678c0 .986-.778 1.785-1.737 1.785s-1.737-.799-1.737-1.785c0-.986.778-1.785 1.737-1.785s1.737.799 1.737 1.785zm4.053-2.381c0 .986-.778 1.785-1.737 1.785s-1.737-.799-1.737-1.785c0-.986.778-1.785 1.737-1.785s1.737.799 1.737 1.785zm-4.922 7.142c0 .986-.778 1.785-1.737 1.785s-1.737-.799-1.737-1.785c0-.986.778-1.785 1.737-1.785s1.737.799 1.737 1.785zm3.764-2.381c0 .986-.778 1.785-1.737 1.785s-1.737-.799-1.737-1.785c0-.986.778-1.785 1.737-1.785s1.737.799 1.737 1.785zm4.343-2.678c0 .986-.778 1.785-1.737 1.785s-1.737-.799-1.737-1.785c0-.986.778-1.785 1.737-1.785s1.737.799 1.737 1.785zm4.052-2.381c0 .986-.778 1.785-1.737 1.785s-1.737-.799-1.737-1.785c0-.986.778-1.785 1.737-1.785s1.737.799 1.737 1.785z"/><path fill="#f8d24e" style="fill:var(--color3, #f8d24e)" d="M41.597 21.548c0 .986-.778 1.785-1.737 1.785s-1.737-.799-1.737-1.785c0-.986.778-1.785 1.737-1.785s1.737.799 1.737 1.785zm3.763-2.381c0 .986-.778 1.785-1.737 1.785s-1.737-.799-1.737-1.785c0-.986.778-1.785 1.737-1.785s1.737.799 1.737 1.785zm4.343-2.678c0 .986-.778 1.785-1.737 1.785s-1.737-.799-1.737-1.785c0-.986.778-1.785 1.737-1.785s1.737.799 1.737 1.785zm4.053-2.381c0 .986-.778 1.785-1.737 1.785s-1.737-.799-1.737-1.785c0-.986.778-1.785 1.737-1.785s1.737.799 1.737 1.785z"/></symbol><symbol id="icon-fb" viewBox="0 0 16 32"><path d="M14.152 15.974h-4.035v14.867H4.004V15.974H1.097v-5.225h2.907V7.368c0-2.418 1.142-6.204 6.167-6.204l4.528.019v5.072h-3.285c-.539 0-1.297.271-1.297 1.424v3.075h4.568l-.534 5.22z"/></symbol><symbol id="icon-telegram" viewBox="0 0 44 32"><path d="m17.345 21.059-.675 8.861c.966 0 1.384-.387 1.886-.852l4.528-4.039 9.382 6.413c1.721.895 2.933.424 3.397-1.477l6.158-26.933.002-.002c.546-2.374-.92-3.302-2.596-2.72l-36.2 12.935c-2.471.895-2.433 2.18-.42 2.763l9.255 2.687L33.559 6.141c1.012-.625 1.931-.279 1.175.346L17.345 21.059z"/></symbol><symbol id="icon-github" viewBox="0 0 32 32"><path d="M16 0C7.212 0 0 7.212 0 16c0 7.499 5.262 14.312 12.25 16v-5.293c-.692.152-1.33.156-2.034-.052-.946-.279-1.714-.909-2.284-1.869-.364-.613-1.008-1.278-1.68-1.23l-.165-1.868c1.453-.124 2.711.886 3.457 2.14.332.558.713.884 1.203 1.029.473.14.982.072 1.574-.137.149-1.186.692-1.63 1.102-2.255v-.001c-4.167-.622-5.828-2.832-6.488-4.578-.874-2.317-.405-5.212 1.14-7.041.03-.036.084-.129.063-.194-.708-2.139.155-3.909.187-4.097.817.242.95-.243 3.551 1.337l.449.27c.188.112.129.048.317.034 1.086-.295 2.23-.458 3.358-.472 1.136.015 2.273.178 3.404.484l.145.015c-.013-.002.04-.009.127-.062 3.248-1.968 3.132-1.324 4.003-1.608.032.188.883 1.987.182 4.099-.095.291 2.816 2.956 1.203 7.235-.659 1.746-2.32 3.957-6.487 4.578v.001c.534.814 1.176 1.247 1.173 2.927V32C26.738 30.312 32 23.499 32 16c0-8.788-7.212-16-16-16z"/></symbol><symbol id="icon-close-modal-btn" viewBox="0 0 32 32"><path d="m17.254 16 7.369-7.369a.886.886 0 0 0-.047-1.207.89.89 0 0 0-1.207-.047L16 14.746 8.631 7.368A.892.892 0 0 0 7.369 8.63l7.378 7.369-7.378 7.369a.891.891 0 0 0-.05 1.304.906.906 0 0 0 .663.26.88.88 0 0 0 .641-.31l7.378-7.369 7.369 7.369a.886.886 0 0 0 1.207-.047.893.893 0 0 0 .047-1.207l-7.369-7.369z"/></symbol><symbol id="icon-close-btn" viewBox="0 0 32 32"><path fill="#fff" style="fill:var(--color1, #fff)" d="M23.884 6.706 16 14.59 8.116 6.706a.995.995 0 0 0-1.38.031 1 1 0 0 0-.031 1.38l7.88 7.884-7.882 7.882a1.002 1.002 0 0 0-.018 1.427.998.998 0 0 0 1.427-.015l7.886-7.882 7.884 7.884a1 1 0 0 0 1.38-.03 1 1 0 0 0 .03-1.38l-7.884-7.884 7.884-7.886a1.002 1.002 0 0 0 .018-1.427.998.998 0 0 0-1.427.015v.002z"/></symbol><symbol id="icon-Burger" viewBox="0 0 50 32"><path fill="none" stroke="#fff" style="stroke:var(--color1, #fff)" stroke-linecap="round" stroke-width="4.571" d="M2.286 2.286H48M2.286 16H48M2.286 29.714H48"/></symbol><symbol id="icon-logo" viewBox="0 0 35 32"><path fill="#f8d24e" style="fill:var(--color3, #f8d24e)" d="M17.384 14.109c1.632-4.366-1.748-6.756-3.988-8.327-.428-.321-.857-.621-1.204-.895-.62-.516-1.077-1.196-1.316-1.96s-.251-1.58-.033-2.351a.447.447 0 0 0-.133-.455.474.474 0 0 0-.471-.094 7.592 7.592 0 0 0-2.078 1.22c-.597.454-1.081 1.037-1.415 1.703s-.507 1.4-.509 2.143a5.671 5.671 0 0 0-1.109 1.144 4.154 4.154 0 0 0-.818 2.681c-.686.621-1.197 1.407-1.483 2.281s-.337 1.806-.149 2.706c-.273.163-.484.409-.601.701s-.134.615-.047.917.272.569.526.758c.255.189.566.29.885.288h.03v2.483c0 .252.102.494.282.672s.426.278.682.278h.75l1.221 10.43c.025.232.137.447.313.603s.405.242.642.242h5.08c.237 0 .466-.087.643-.242s.29-.37.317-.602l1.221-10.43h.75c.256 0 .501-.1.682-.278s.282-.42.282-.672V16.57h.03c.387 0 .759-.152 1.033-.422s.428-.636.428-1.018a1.422 1.422 0 0 0-.429-1.026l-.013.004zM6.388 6.188c.617 2.284 2.999 3.184 5.17 3.986a.466.466 0 0 0 .394.044.475.475 0 0 0 .287-.271.447.447 0 0 0-.028-.39.459.459 0 0 0-.322-.227C9.55 8.456 7.344 7.641 7.177 5.306c-.039-.642.083-1.283.356-1.867s.688-1.093 1.208-1.481a6.983 6.983 0 0 1 1.045-.709 5.362 5.362 0 0 0 0 .878c.05.669.235 1.322.546 1.919s.74 1.126 1.262 1.557c.356.3.797.608 1.285.937 1.127.798 2.407 1.689 3.221 2.897a4.449 4.449 0 0 1 .467 4.285h-1.893c-3.902 0-8.387-1.064-9.274-4.045-.176-.613-.174-1.263.004-1.875s.527-1.164 1.007-1.591L6.39 6.19zm3.513 14.394 1.431 1.41-1.431 1.41-1.431-1.419 1.431-1.402zm3.281 3.704L12 25.451l-1.431-1.41L12 22.635l1.242 1.22-.06.431zM9.901 27.52 8.47 26.11l1.431-1.41 1.431 1.41-1.431 1.41zm-.656-3.471-1.431 1.41-1.191-1.174-.051-.422 1.242-1.22 1.431 1.406zm-2.09 2.061-.287.283-.073-.642.36.359zm-.15 1.444.81-.798 1.572 1.562a.72.72 0 0 0 .03.093H7.104l-.099-.857zm4.986-.798.81.798-.099.845h-2.378l1.666-1.643zm.943-.363-.287-.283.364-.359-.077.642zm.428-3.691-.715-.718.908-.895-.193 1.613zm-1.375-1.36-1.358-1.334h2.716l-1.358 1.334zm-4.177 0-1.358-1.334h2.716L7.81 21.342zm4.627 9.02H7.361c-.008-.001-.015-.004-.02-.01s-.009-.012-.01-.02l-.12-1.013h5.38l-.116 1.013c-.001.008-.005.016-.011.021s-.014.008-.023.008h-.004zm3.928-14.711h-1.491a.48.48 0 0 0-.359.117.462.462 0 0 0-.153.34.457.457 0 0 0 .32.436.48.48 0 0 0 .192.021h.531v2.483c-.001.008-.005.016-.011.021s-.014.008-.023.008H4.418c-.008 0-.017-.003-.023-.008s-.01-.013-.011-.021v-2.483h8.486c.116-.011.223-.064.301-.149a.457.457 0 0 0-.301-.767H3.446a.549.549 0 0 1-.406-.135.513.513 0 0 1 0-.772.543.543 0 0 1 .406-.135h.972c.116-.011.223-.064.301-.149a.457.457 0 0 0-.301-.767h-.857c-.123-.643-.103-1.304.058-1.938s.46-1.226.875-1.736c.3.921 1.071 2.179 2.999 3.18 1.812.933 4.211 1.41 7.128 1.41h1.713a.547.547 0 0 1 .406.135.51.51 0 0 1 .128.597.524.524 0 0 1-.317.285.517.517 0 0 1-.217.025h.03zm3.494 12.741-.342.525.007.004.335-.529zm3.682.177.626-.014-.016-.725-.715.121.105.617zm.043 1.926.159.606.478-.126-.011-.494-.626.014zm-4.832.092.141-.61-.004-.001-.137.611zm-2.385-1.064.405-.478-.001-.001-.404.478zm-.862-1.957.626.003v-.003h-.626zm.299-1.37-.562-.276v.001l.562.276zm1.921-1.639.222.586.002-.001-.224-.585zm6.152-.159.624.049.041-.529-.515-.128-.151.608zm-.153 1.963-.117.615.687.13.054-.697-.624-.049zm-1.67-.804c-.94 0-1.73.1-2.307.354-.296.13-.565.313-.761.571a1.474 1.474 0 0 0-.298.905h1.252c0-.073.018-.114.044-.149.032-.043.106-.111.267-.182.336-.148.916-.248 1.803-.248v-1.252zm-3.366 1.832c0 .644.289 1.176.829 1.528l.684-1.049a.508.508 0 0 1-.26-.478h-1.252zm.836 1.532c.512.324 1.186.446 1.944.446v-1.253c-.654 0-1.051-.111-1.273-.251l-.67 1.058zm1.943.445c.743 0 1.469-.06 2.178-.18l-.21-1.235c-.637.108-1.293.162-1.968.162v1.253zm1.448-.783.043 1.926 1.252-.028-.043-1.926-1.252.028zm.509 1.307a9.327 9.327 0 0 1-2.373.285v1.252c.96 0 1.858-.107 2.691-.326l-.319-1.211zm-2.372.285c-.885 0-1.601-.07-2.159-.198l-.281 1.221c.681.157 1.498.23 2.44.23v-1.252zm-2.163-.199c-.598-.134-1.029-.276-1.317-.416l-.55 1.125c.413.202.952.37 1.594.513l.273-1.222zm-1.318-.416a3.813 3.813 0 0 1-.799-.514l-.81.955c.313.265.667.493 1.06.685l.55-1.125zm-.8-.515c-.426-.36-.644-.83-.64-1.476l-1.252-.006c-.005.985.352 1.82 1.084 2.438l.809-.957zm-.64-1.479c0-.421.083-.782.236-1.094l-1.125-.551a3.701 3.701 0 0 0-.364 1.645h1.252zm.235-1.094c.285-.579.788-1.029 1.581-1.33l-.444-1.171c-1.034.392-1.811 1.035-2.26 1.948l1.124.553zm1.583-1.33c.833-.32 1.763-.484 2.797-.484v-1.253c-1.168 0-2.252.186-3.246.568l.449 1.169zm2.797-.485c1.054 0 2.047.117 2.981.348l.301-1.216a13.586 13.586 0 0 0-3.282-.385v1.253zm2.507-.308-.153 1.963 1.249.097.153-1.963-1.249-.097zm.588 1.397a9.646 9.646 0 0 0-1.786-.188v1.252c.441 0 .957.053 1.553.166l.233-1.231zm6.11 1-.003.626.636.004-.007-.636-.626.007zm-.269-.813-.426.459.005.005.421-.464zm-1.559.061.434.452.005-.004-.438-.447zm-.38.74-.618-.102-.119.724.733.004.003-.626zm4.606 3.339.378.499.225-.171.021-.282-.624-.047zm-1.352.502-.135-.612-.004.001.138.611zm-4.697-.171-.214.589.005.002.208-.59zm-1.07-.569-.389.491.008.006.381-.497zm-.716-.899-.561.278.001.003.56-.28zm.734-3.798.416.468-.417-.467zm5.725-.679.25-.574-.006-.003-.245.576zm1.437 1.321-.563.274.002.003.562-.277zm.244 1.095.625.045.002-.023v-.023h-.626zm-.073 1.009-.003.626.585.003.042-.584-.625-.045zm-4.96-.025.003-.626-.817-.004.208.79.606-.16zm.71.875-.308.545.003.001.306-.547zm3.803-.214v-.626h-.125l-.116.048.241.578zm.331 0 .624.047.05-.673h-.675v.626zm-1.888-1.78c-.005-.453-.109-.939-.475-1.271l-.841.928c-.007-.007.007.001.025.055.019.057.037.153.039.301l1.252-.013zm-.469-1.266c-.329-.305-.76-.406-1.184-.406v1.252c.244 0 .318.058.332.071l.852-.918zm-1.184-.406c-.466 0-.9.146-1.239.479l.877.895c.068-.067.169-.121.363-.121v-1.252zm-1.235.474a1.91 1.91 0 0 0-.563 1.09l1.236.203a.666.666 0 0 1 .195-.39l-.867-.904zm.051 1.818 2.208.012.007-1.253-2.208-.012-.007 1.253zm4.23 2.214c-.137.104-.472.249-1.108.389l.269 1.223c.661-.145 1.227-.335 1.595-.614l-.757-.998zm-1.111.39a7.946 7.946 0 0 1-1.752.205v1.252c.662 0 1.338-.079 2.028-.236l-.277-1.222zm-1.752.205c-.59 0-1.076-.028-1.464-.08l-.167 1.241c.461.062 1.006.091 1.631.091v-1.252zm-1.464-.08a5.672 5.672 0 0 1-1.135-.276l-.417 1.181c.455.161.917.273 1.385.336l.167-1.241zm-1.129-.274a3.363 3.363 0 0 1-.903-.477l-.762.994c.357.274.772.492 1.238.661l.427-1.177zm-.895-.471a1.987 1.987 0 0 1-.544-.688l-1.12.56c.221.441.515.815.887 1.11l.777-.982zm-.543-.686c-.132-.266-.21-.609-.21-1.05h-1.253c0 .587.105 1.129.34 1.605l1.123-.555zm-.211-1.049c0-.441.079-.83.23-1.176l-1.149-.499a4.163 4.163 0 0 0-.333 1.674h1.253zm.23-1.176c.158-.364.351-.633.57-.827l-.833-.935a3.56 3.56 0 0 0-.886 1.264l1.149.499zm.57-.828c.673-.6 1.7-.948 3.179-.948v-1.253c-1.66 0-3.031.39-4.013 1.266l.834.935zm3.179-.948c.664 0 1.29.126 1.884.378l.489-1.153a6.018 6.018 0 0 0-2.373-.478v1.253zm1.878.376c.554.242.912.585 1.124 1.021l1.126-.548c-.359-.738-.959-1.276-1.75-1.621l-.501 1.148zm1.126 1.024c.117.237.18.506.18.817h1.252c0-.487-.1-.948-.309-1.372l-1.123.555zm.182.772-.073 1.009 1.249.091.073-1.009-1.249-.091zm.554.429-4.96-.024-.006 1.252 4.96.024.006-1.252zm-5.569.761c.146.555.505.976 1.007 1.26l.616-1.09c-.248-.14-.363-.302-.412-.489l-1.211.319zm1.01 1.262c.508.284 1.143.398 1.853.398v-1.252c-.595 0-.991-.098-1.242-.238l-.611 1.093zm1.853.397c.762 0 1.598-.206 2.497-.58l-.481-1.156c-.805.335-1.473.484-2.016.484v1.252zm2.256-.532h.33v-1.252h-.33v1.252zm-.294-.673-.116 1.553 1.249.093.116-1.553-1.249-.093z"/></symbol></defs></svg>